<svg width="259" height="37" viewBox="0 0 259 37" fill="none" xmlns="http://www.w3.org/2000/svg">
<mask id="path-1-outside-1_56_305" maskUnits="userSpaceOnUse" x="0.744887" y="1.72954" width="259.511" height="35.4063" fill="black">
<rect fill="white" x="0.744887" y="1.72954" width="259.511" height="35.4063"/>
<path d="M17.6368 32.1801H20.382C20.9342 32.1801 21.301 32.6205 21.2011 33.1636L20.8855 34.88C20.7856 35.4232 20.2569 35.8635 19.7046 35.8635H17.9595C17.4072 35.8635 17.0404 35.4232 17.1403 34.88L17.6368 32.1801ZM14.569 28.4967H18.3142L17.6368 32.1801H13.8917L14.569 28.4967ZM11.3204 25.7969C11.4203 25.2537 11.9489 24.8134 12.5012 24.8134H14.2464C14.7987 24.8134 15.1654 25.2537 15.0655 25.7969L14.569 28.4967H11.8239C11.2716 28.4967 10.9048 28.0564 11.0047 27.5132L11.3204 25.7969ZM6.40137 32.1801H13.8917L13.3952 34.88C13.2953 35.4232 12.7666 35.8635 12.2143 35.8635H6.72401C6.17173 35.8635 5.80499 35.4232 5.90487 34.88L6.40137 32.1801ZM7.21685 7.37994C7.31674 6.83676 7.84543 6.39643 8.39772 6.39643H11.1429L6.40137 32.1801H3.65622C3.10394 32.1801 2.7372 31.7398 2.83708 31.1966L7.21685 7.37994ZM11.6394 3.69656C11.7392 3.15338 12.2679 2.71305 12.8202 2.71305H22.0557C22.6079 2.71305 22.9747 3.15338 22.8748 3.69656L22.3783 6.39643H11.1429L11.6394 3.69656ZM22.3783 6.39643H25.1235C25.6757 6.39643 26.0425 6.83676 25.9426 7.37994L22.2402 27.5132C22.1403 28.0564 21.6116 28.4967 21.0593 28.4967H18.3142L22.3783 6.39643Z"/>
<path d="M47.7361 11.0633C47.836 10.5201 48.3647 10.0798 48.917 10.0798H50.6621C51.2144 10.0798 51.5812 10.5201 51.4813 11.0633L47.7789 31.1966C47.679 31.7398 47.1503 32.1801 46.598 32.1801H43.8528L47.7361 11.0633ZM32.6174 32.1801H43.8528L43.3564 34.88C43.2565 35.4232 42.7278 35.8635 42.1755 35.8635H32.94C32.3878 35.8635 32.021 35.4232 32.1209 34.88L32.6174 32.1801ZM32.7555 11.0633C32.8554 10.5201 33.3841 10.0798 33.9364 10.0798H35.6815C36.2338 10.0798 36.6006 10.5201 36.5007 11.0633L32.6174 32.1801H29.8723C29.32 32.1801 28.9532 31.7398 29.0531 31.1966L32.7555 11.0633Z"/>
<path d="M70.5654 29.4802C70.6653 28.9371 71.1939 28.4967 71.7462 28.4967H73.4914C74.0437 28.4967 74.4104 28.9371 74.3105 29.4802L73.9949 31.1966C73.895 31.7398 73.3663 32.1801 72.814 32.1801H70.0689L70.5654 29.4802ZM58.8334 32.1801H70.0689L69.5724 34.88C69.4725 35.4232 68.9438 35.8635 68.3915 35.8635H59.1561C58.6038 35.8635 58.2371 35.4232 58.3369 34.88L58.8334 32.1801ZM58.2942 14.7467C58.3941 14.2035 58.9228 13.7632 59.4751 13.7632H62.2202L61.0464 20.1465C60.9465 20.6896 61.3132 21.13 61.8655 21.13H71.1009C71.6532 21.13 72.1819 20.6896 72.2818 20.1465L73.4557 13.7632H76.2008C76.7531 13.7632 77.1198 14.2035 77.0199 14.7467L75.3496 23.8298C75.2497 24.373 74.721 24.8134 74.1687 24.8134H61.1881C60.6359 24.8134 60.1072 25.2537 60.0073 25.7969L58.8334 32.1801H56.0883C55.536 32.1801 55.1693 31.7398 55.2691 31.1966L58.2942 14.7467ZM62.7167 11.0633C62.8166 10.5201 63.3453 10.0798 63.8976 10.0798H73.133C73.6853 10.0798 74.052 10.5201 73.9521 11.0633L73.4557 13.7632H62.2202L62.7167 11.0633Z"/>
<path d="M84.5102 14.7467C84.6101 14.2035 85.1388 13.7632 85.6911 13.7632H88.4363L87.0815 21.13H84.3364C83.7841 21.13 83.4174 20.6896 83.5172 20.1465L84.5102 14.7467ZM97.6396 24.8134H100.385C100.937 24.8134 101.304 25.2537 101.204 25.7969L100.211 31.1966C100.111 31.7398 99.5823 32.1801 99.0301 32.1801H96.2849L97.6396 24.8134ZM85.0495 32.1801H96.2849L95.7884 34.88C95.6885 35.4232 95.1598 35.8635 94.6076 35.8635H85.3721C84.8198 35.8635 84.4531 35.4232 84.553 34.88L85.0495 32.1801ZM81.8008 29.4802C81.9007 28.9371 82.4294 28.4967 82.9817 28.4967H84.7268C85.2791 28.4967 85.6459 28.9371 85.546 29.4802L85.0495 32.1801H82.3043C81.752 32.1801 81.3853 31.7398 81.4852 31.1966L81.8008 29.4802ZM87.0815 21.13H97.317C97.8693 21.13 98.236 21.5703 98.1361 22.1135L97.6396 24.8134H87.4042C86.8519 24.8134 86.4852 24.373 86.585 23.8298L87.0815 21.13ZM99.6717 13.7632H102.417C102.969 13.7632 103.336 14.2035 103.236 14.7467L102.92 16.4631C102.82 17.0063 102.292 17.4466 101.739 17.4466H99.9943C99.4421 17.4466 99.0753 17.0063 99.1752 16.4631L99.6717 13.7632ZM88.9327 11.0633C89.0326 10.5201 89.5613 10.0798 90.1136 10.0798H99.3491C99.9013 10.0798 100.268 10.5201 100.168 11.0633L99.6717 13.7632H88.4363L88.9327 11.0633Z"/>
<path d="M115.826 7.37994C115.926 6.83676 116.455 6.39643 117.007 6.39643H118.752C119.304 6.39643 119.671 6.83676 119.571 7.37994L119.256 9.09631C119.156 9.63948 119.522 10.0798 120.075 10.0798H125.565C126.117 10.0798 126.484 10.5201 126.384 11.0633L126.069 12.7797C125.969 13.3229 125.44 13.7632 124.888 13.7632H119.397C118.845 13.7632 118.316 14.2035 118.217 14.7467L115.011 32.1801H112.265C111.713 32.1801 111.346 31.7398 111.446 31.1966L114.471 14.7467C114.571 14.2035 114.205 13.7632 113.652 13.7632H111.907C111.355 13.7632 110.988 13.3229 111.088 12.7797L111.404 11.0633C111.504 10.5201 112.032 10.0798 112.584 10.0798H114.33C114.882 10.0798 115.411 9.63948 115.51 9.09631L115.826 7.37994ZM115.011 32.1801H121.501C122.053 32.1801 122.42 32.6205 122.32 33.1636L122.004 34.88C121.905 35.4232 121.376 35.8635 120.824 35.8635H115.333C114.781 35.8635 114.414 35.4232 114.514 34.88L115.011 32.1801Z"/>
<path d="M145.11 11.0633C145.21 10.5201 145.739 10.0798 146.291 10.0798H151.781C152.333 10.0798 152.7 10.5201 152.6 11.0633L152.285 12.7797C152.185 13.3229 151.656 13.7632 151.104 13.7632H144.613L145.11 11.0633ZM140.687 14.7467C140.787 14.2035 141.316 13.7632 141.868 13.7632H144.613L144.117 16.4631C144.017 17.0063 143.488 17.4466 142.936 17.4466H140.191L140.687 14.7467ZM133.875 11.0633C133.974 10.5201 134.503 10.0798 135.055 10.0798H136.801C137.353 10.0798 137.72 10.5201 137.62 11.0633L136.627 16.4631C136.527 17.0063 136.894 17.4466 137.446 17.4466H140.191L139.694 20.1465C139.595 20.6896 139.066 21.13 138.514 21.13H136.768C136.216 21.13 135.687 21.5703 135.588 22.1135L133.24 34.88C133.14 35.4232 132.611 35.8635 132.059 35.8635H130.314C129.762 35.8635 129.395 35.4232 129.495 34.88L133.875 11.0633Z"/>
<path d="M159.413 14.7467C159.513 14.2035 160.042 13.7632 160.594 13.7632H163.339L162.843 16.4631C162.743 17.0063 162.214 17.4466 161.662 17.4466H159.917C159.364 17.4466 158.998 17.0063 159.098 16.4631L159.413 14.7467ZM157.381 25.7969C157.481 25.2537 158.01 24.8134 158.562 24.8134H161.307L159.952 32.1801H157.207C156.655 32.1801 156.288 31.7398 156.388 31.1966L157.381 25.7969ZM174.575 13.7632H177.32C177.872 13.7632 178.239 14.2035 178.139 14.7467L174.437 34.88C174.337 35.4232 173.808 35.8635 173.256 35.8635H160.275C159.723 35.8635 159.356 35.4232 159.456 34.88L159.952 32.1801H170.188C170.74 32.1801 171.269 31.7398 171.369 31.1966L172.362 25.7969C172.462 25.2537 172.095 24.8134 171.543 24.8134H161.307L161.804 22.1135C161.904 21.5703 162.432 21.13 162.984 21.13H172.22C172.772 21.13 173.301 20.6896 173.401 20.1465L174.575 13.7632ZM163.836 11.0633C163.936 10.5201 164.464 10.0798 165.017 10.0798H174.252C174.804 10.0798 175.171 10.5201 175.071 11.0633L174.575 13.7632H163.339L163.836 11.0633Z"/>
<path d="M185.629 14.7467C185.729 14.2035 186.258 13.7632 186.81 13.7632H189.555L186.168 32.1801H183.423C182.871 32.1801 182.504 31.7398 182.604 31.1966L185.629 14.7467ZM202.642 3.69656C202.742 3.15338 203.27 2.71305 203.823 2.71305H205.568C206.12 2.71305 206.487 3.15338 206.387 3.69656L200.653 34.88C200.553 35.4232 200.024 35.8635 199.472 35.8635H186.491C185.939 35.8635 185.572 35.4232 185.672 34.88L186.168 32.1801H196.404C196.956 32.1801 197.485 31.7398 197.585 31.1966L200.61 14.7467C200.71 14.2035 200.343 13.7632 199.791 13.7632H189.555L190.052 11.0633C190.152 10.5201 190.68 10.0798 191.233 10.0798H200.468C201.02 10.0798 201.549 9.63948 201.649 9.09631L202.642 3.69656Z"/>
<path d="M224.116 29.4802C224.216 28.9371 224.745 28.4967 225.297 28.4967H227.042C227.595 28.4967 227.961 28.9371 227.862 29.4802L227.546 31.1966C227.446 31.7398 226.917 32.1801 226.365 32.1801H223.62L224.116 29.4802ZM212.384 32.1801H223.62L223.123 34.88C223.024 35.4232 222.495 35.8635 221.943 35.8635H212.707C212.155 35.8635 211.788 35.4232 211.888 34.88L212.384 32.1801ZM211.845 14.7467C211.945 14.2035 212.474 13.7632 213.026 13.7632H215.771L214.597 20.1465C214.498 20.6896 214.864 21.13 215.417 21.13H224.652C225.204 21.13 225.733 20.6896 225.833 20.1465L227.007 13.7632H229.752C230.304 13.7632 230.671 14.2035 230.571 14.7467L228.901 23.8298C228.801 24.373 228.272 24.8134 227.72 24.8134H214.739C214.187 24.8134 213.658 25.2537 213.558 25.7969L212.384 32.1801H209.639C209.087 32.1801 208.72 31.7398 208.82 31.1966L211.845 14.7467ZM216.268 11.0633C216.368 10.5201 216.896 10.0798 217.449 10.0798H226.684C227.236 10.0798 227.603 10.5201 227.503 11.0633L227.007 13.7632H215.771L216.268 11.0633Z"/>
<path d="M249.974 11.0633C250.074 10.5201 250.603 10.0798 251.155 10.0798H256.645C257.198 10.0798 257.564 10.5201 257.464 11.0633L257.149 12.7797C257.049 13.3229 256.52 13.7632 255.968 13.7632H249.478L249.974 11.0633ZM245.552 14.7467C245.651 14.2035 246.18 13.7632 246.732 13.7632H249.478L248.981 16.4631C248.881 17.0063 248.353 17.4466 247.8 17.4466H245.055L245.552 14.7467ZM238.739 11.0633C238.839 10.5201 239.367 10.0798 239.92 10.0798H241.665C242.217 10.0798 242.584 10.5201 242.484 11.0633L241.491 16.4631C241.391 17.0063 241.758 17.4466 242.31 17.4466H245.055L244.559 20.1465C244.459 20.6896 243.93 21.13 243.378 21.13H241.633C241.08 21.13 240.552 21.5703 240.452 22.1135L238.104 34.88C238.004 35.4232 237.475 35.8635 236.923 35.8635H235.178C234.626 35.8635 234.259 35.4232 234.359 34.88L238.739 11.0633Z"/>
</mask>
<path d="M17.6368 32.1801H20.382C20.9342 32.1801 21.301 32.6205 21.2011 33.1636L20.8855 34.88C20.7856 35.4232 20.2569 35.8635 19.7046 35.8635H17.9595C17.4072 35.8635 17.0404 35.4232 17.1403 34.88L17.6368 32.1801ZM14.569 28.4967H18.3142L17.6368 32.1801H13.8917L14.569 28.4967ZM11.3204 25.7969C11.4203 25.2537 11.9489 24.8134 12.5012 24.8134H14.2464C14.7987 24.8134 15.1654 25.2537 15.0655 25.7969L14.569 28.4967H11.8239C11.2716 28.4967 10.9048 28.0564 11.0047 27.5132L11.3204 25.7969ZM6.40137 32.1801H13.8917L13.3952 34.88C13.2953 35.4232 12.7666 35.8635 12.2143 35.8635H6.72401C6.17173 35.8635 5.80499 35.4232 5.90487 34.88L6.40137 32.1801ZM7.21685 7.37994C7.31674 6.83676 7.84543 6.39643 8.39772 6.39643H11.1429L6.40137 32.1801H3.65622C3.10394 32.1801 2.7372 31.7398 2.83708 31.1966L7.21685 7.37994ZM11.6394 3.69656C11.7392 3.15338 12.2679 2.71305 12.8202 2.71305H22.0557C22.6079 2.71305 22.9747 3.15338 22.8748 3.69656L22.3783 6.39643H11.1429L11.6394 3.69656ZM22.3783 6.39643H25.1235C25.6757 6.39643 26.0425 6.83676 25.9426 7.37994L22.2402 27.5132C22.1403 28.0564 21.6116 28.4967 21.0593 28.4967H18.3142L22.3783 6.39643Z" fill="#118F8D"/>
<path d="M47.7361 11.0633C47.836 10.5201 48.3647 10.0798 48.917 10.0798H50.6621C51.2144 10.0798 51.5812 10.5201 51.4813 11.0633L47.7789 31.1966C47.679 31.7398 47.1503 32.1801 46.598 32.1801H43.8528L47.7361 11.0633ZM32.6174 32.1801H43.8528L43.3564 34.88C43.2565 35.4232 42.7278 35.8635 42.1755 35.8635H32.94C32.3878 35.8635 32.021 35.4232 32.1209 34.88L32.6174 32.1801ZM32.7555 11.0633C32.8554 10.5201 33.3841 10.0798 33.9364 10.0798H35.6815C36.2338 10.0798 36.6006 10.5201 36.5007 11.0633L32.6174 32.1801H29.8723C29.32 32.1801 28.9532 31.7398 29.0531 31.1966L32.7555 11.0633Z" fill="#118F8D"/>
<path d="M70.5654 29.4802C70.6653 28.9371 71.1939 28.4967 71.7462 28.4967H73.4914C74.0437 28.4967 74.4104 28.9371 74.3105 29.4802L73.9949 31.1966C73.895 31.7398 73.3663 32.1801 72.814 32.1801H70.0689L70.5654 29.4802ZM58.8334 32.1801H70.0689L69.5724 34.88C69.4725 35.4232 68.9438 35.8635 68.3915 35.8635H59.1561C58.6038 35.8635 58.2371 35.4232 58.3369 34.88L58.8334 32.1801ZM58.2942 14.7467C58.3941 14.2035 58.9228 13.7632 59.4751 13.7632H62.2202L61.0464 20.1465C60.9465 20.6896 61.3132 21.13 61.8655 21.13H71.1009C71.6532 21.13 72.1819 20.6896 72.2818 20.1465L73.4557 13.7632H76.2008C76.7531 13.7632 77.1198 14.2035 77.0199 14.7467L75.3496 23.8298C75.2497 24.373 74.721 24.8134 74.1687 24.8134H61.1881C60.6359 24.8134 60.1072 25.2537 60.0073 25.7969L58.8334 32.1801H56.0883C55.536 32.1801 55.1693 31.7398 55.2691 31.1966L58.2942 14.7467ZM62.7167 11.0633C62.8166 10.5201 63.3453 10.0798 63.8976 10.0798H73.133C73.6853 10.0798 74.052 10.5201 73.9521 11.0633L73.4557 13.7632H62.2202L62.7167 11.0633Z" fill="#118F8D"/>
<path d="M84.5102 14.7467C84.6101 14.2035 85.1388 13.7632 85.6911 13.7632H88.4363L87.0815 21.13H84.3364C83.7841 21.13 83.4174 20.6896 83.5172 20.1465L84.5102 14.7467ZM97.6396 24.8134H100.385C100.937 24.8134 101.304 25.2537 101.204 25.7969L100.211 31.1966C100.111 31.7398 99.5823 32.1801 99.0301 32.1801H96.2849L97.6396 24.8134ZM85.0495 32.1801H96.2849L95.7884 34.88C95.6885 35.4232 95.1598 35.8635 94.6076 35.8635H85.3721C84.8198 35.8635 84.4531 35.4232 84.553 34.88L85.0495 32.1801ZM81.8008 29.4802C81.9007 28.9371 82.4294 28.4967 82.9817 28.4967H84.7268C85.2791 28.4967 85.6459 28.9371 85.546 29.4802L85.0495 32.1801H82.3043C81.752 32.1801 81.3853 31.7398 81.4852 31.1966L81.8008 29.4802ZM87.0815 21.13H97.317C97.8693 21.13 98.236 21.5703 98.1361 22.1135L97.6396 24.8134H87.4042C86.8519 24.8134 86.4852 24.373 86.585 23.8298L87.0815 21.13ZM99.6717 13.7632H102.417C102.969 13.7632 103.336 14.2035 103.236 14.7467L102.92 16.4631C102.82 17.0063 102.292 17.4466 101.739 17.4466H99.9943C99.4421 17.4466 99.0753 17.0063 99.1752 16.4631L99.6717 13.7632ZM88.9327 11.0633C89.0326 10.5201 89.5613 10.0798 90.1136 10.0798H99.3491C99.9013 10.0798 100.268 10.5201 100.168 11.0633L99.6717 13.7632H88.4363L88.9327 11.0633Z" fill="#118F8D"/>
<path d="M115.826 7.37994C115.926 6.83676 116.455 6.39643 117.007 6.39643H118.752C119.304 6.39643 119.671 6.83676 119.571 7.37994L119.256 9.09631C119.156 9.63948 119.522 10.0798 120.075 10.0798H125.565C126.117 10.0798 126.484 10.5201 126.384 11.0633L126.069 12.7797C125.969 13.3229 125.44 13.7632 124.888 13.7632H119.397C118.845 13.7632 118.316 14.2035 118.217 14.7467L115.011 32.1801H112.265C111.713 32.1801 111.346 31.7398 111.446 31.1966L114.471 14.7467C114.571 14.2035 114.205 13.7632 113.652 13.7632H111.907C111.355 13.7632 110.988 13.3229 111.088 12.7797L111.404 11.0633C111.504 10.5201 112.032 10.0798 112.584 10.0798H114.33C114.882 10.0798 115.411 9.63948 115.51 9.09631L115.826 7.37994ZM115.011 32.1801H121.501C122.053 32.1801 122.42 32.6205 122.32 33.1636L122.004 34.88C121.905 35.4232 121.376 35.8635 120.824 35.8635H115.333C114.781 35.8635 114.414 35.4232 114.514 34.88L115.011 32.1801Z" fill="#118F8D"/>
<path d="M145.11 11.0633C145.21 10.5201 145.739 10.0798 146.291 10.0798H151.781C152.333 10.0798 152.7 10.5201 152.6 11.0633L152.285 12.7797C152.185 13.3229 151.656 13.7632 151.104 13.7632H144.613L145.11 11.0633ZM140.687 14.7467C140.787 14.2035 141.316 13.7632 141.868 13.7632H144.613L144.117 16.4631C144.017 17.0063 143.488 17.4466 142.936 17.4466H140.191L140.687 14.7467ZM133.875 11.0633C133.974 10.5201 134.503 10.0798 135.055 10.0798H136.801C137.353 10.0798 137.72 10.5201 137.62 11.0633L136.627 16.4631C136.527 17.0063 136.894 17.4466 137.446 17.4466H140.191L139.694 20.1465C139.595 20.6896 139.066 21.13 138.514 21.13H136.768C136.216 21.13 135.687 21.5703 135.588 22.1135L133.24 34.88C133.14 35.4232 132.611 35.8635 132.059 35.8635H130.314C129.762 35.8635 129.395 35.4232 129.495 34.88L133.875 11.0633Z" fill="#118F8D"/>
<path d="M159.413 14.7467C159.513 14.2035 160.042 13.7632 160.594 13.7632H163.339L162.843 16.4631C162.743 17.0063 162.214 17.4466 161.662 17.4466H159.917C159.364 17.4466 158.998 17.0063 159.098 16.4631L159.413 14.7467ZM157.381 25.7969C157.481 25.2537 158.01 24.8134 158.562 24.8134H161.307L159.952 32.1801H157.207C156.655 32.1801 156.288 31.7398 156.388 31.1966L157.381 25.7969ZM174.575 13.7632H177.32C177.872 13.7632 178.239 14.2035 178.139 14.7467L174.437 34.88C174.337 35.4232 173.808 35.8635 173.256 35.8635H160.275C159.723 35.8635 159.356 35.4232 159.456 34.88L159.952 32.1801H170.188C170.74 32.1801 171.269 31.7398 171.369 31.1966L172.362 25.7969C172.462 25.2537 172.095 24.8134 171.543 24.8134H161.307L161.804 22.1135C161.904 21.5703 162.432 21.13 162.984 21.13H172.22C172.772 21.13 173.301 20.6896 173.401 20.1465L174.575 13.7632ZM163.836 11.0633C163.936 10.5201 164.464 10.0798 165.017 10.0798H174.252C174.804 10.0798 175.171 10.5201 175.071 11.0633L174.575 13.7632H163.339L163.836 11.0633Z" fill="#118F8D"/>
<path d="M185.629 14.7467C185.729 14.2035 186.258 13.7632 186.81 13.7632H189.555L186.168 32.1801H183.423C182.871 32.1801 182.504 31.7398 182.604 31.1966L185.629 14.7467ZM202.642 3.69656C202.742 3.15338 203.27 2.71305 203.823 2.71305H205.568C206.12 2.71305 206.487 3.15338 206.387 3.69656L200.653 34.88C200.553 35.4232 200.024 35.8635 199.472 35.8635H186.491C185.939 35.8635 185.572 35.4232 185.672 34.88L186.168 32.1801H196.404C196.956 32.1801 197.485 31.7398 197.585 31.1966L200.61 14.7467C200.71 14.2035 200.343 13.7632 199.791 13.7632H189.555L190.052 11.0633C190.152 10.5201 190.68 10.0798 191.233 10.0798H200.468C201.02 10.0798 201.549 9.63948 201.649 9.09631L202.642 3.69656Z" fill="#118F8D"/>
<path d="M224.116 29.4802C224.216 28.9371 224.745 28.4967 225.297 28.4967H227.042C227.595 28.4967 227.961 28.9371 227.862 29.4802L227.546 31.1966C227.446 31.7398 226.917 32.1801 226.365 32.1801H223.62L224.116 29.4802ZM212.384 32.1801H223.62L223.123 34.88C223.024 35.4232 222.495 35.8635 221.943 35.8635H212.707C212.155 35.8635 211.788 35.4232 211.888 34.88L212.384 32.1801ZM211.845 14.7467C211.945 14.2035 212.474 13.7632 213.026 13.7632H215.771L214.597 20.1465C214.498 20.6896 214.864 21.13 215.417 21.13H224.652C225.204 21.13 225.733 20.6896 225.833 20.1465L227.007 13.7632H229.752C230.304 13.7632 230.671 14.2035 230.571 14.7467L228.901 23.8298C228.801 24.373 228.272 24.8134 227.72 24.8134H214.739C214.187 24.8134 213.658 25.2537 213.558 25.7969L212.384 32.1801H209.639C209.087 32.1801 208.72 31.7398 208.82 31.1966L211.845 14.7467ZM216.268 11.0633C216.368 10.5201 216.896 10.0798 217.449 10.0798H226.684C227.236 10.0798 227.603 10.5201 227.503 11.0633L227.007 13.7632H215.771L216.268 11.0633Z" fill="#118F8D"/>
<path d="M249.974 11.0633C250.074 10.5201 250.603 10.0798 251.155 10.0798H256.645C257.198 10.0798 257.564 10.5201 257.464 11.0633L257.149 12.7797C257.049 13.3229 256.52 13.7632 255.968 13.7632H249.478L249.974 11.0633ZM245.552 14.7467C245.651 14.2035 246.18 13.7632 246.732 13.7632H249.478L248.981 16.4631C248.881 17.0063 248.353 17.4466 247.8 17.4466H245.055L245.552 14.7467ZM238.739 11.0633C238.839 10.5201 239.367 10.0798 239.92 10.0798H241.665C242.217 10.0798 242.584 10.5201 242.484 11.0633L241.491 16.4631C241.391 17.0063 241.758 17.4466 242.31 17.4466H245.055L244.559 20.1465C244.459 20.6896 243.93 21.13 243.378 21.13H241.633C241.08 21.13 240.552 21.5703 240.452 22.1135L238.104 34.88C238.004 35.4232 237.475 35.8635 236.923 35.8635H235.178C234.626 35.8635 234.259 35.4232 234.359 34.88L238.739 11.0633Z" fill="#118F8D"/>
<path d="M17.6368 32.1801L17.4559 33.1636H20.2011L20.382 32.1801L20.5628 31.1966H17.8177L17.6368 32.1801ZM21.2011 33.1636H20.2011L19.8855 34.88H20.8855H21.8855L22.2011 33.1636H21.2011ZM19.7046 35.8635L19.8855 34.88H18.1403L17.9595 35.8635L17.7786 36.847H19.5237L19.7046 35.8635ZM17.1403 34.88H18.1403L18.6368 32.1801H17.6368H16.6368L16.1403 34.88H17.1403ZM14.569 28.4967L14.3882 29.4802H18.1333L18.3142 28.4967L18.495 27.5132H14.7499L14.569 28.4967ZM18.3142 28.4967H17.3142L16.6368 32.1801H17.6368H18.6368L19.3142 28.4967H18.3142ZM17.6368 32.1801L17.8177 31.1966H14.0725L13.8917 32.1801L13.7108 33.1636H17.4559L17.6368 32.1801ZM13.8917 32.1801H14.8917L15.569 28.4967H14.569H13.569L12.8917 32.1801H13.8917ZM12.5012 24.8134L12.3204 25.7969H14.0655L14.2464 24.8134L14.4272 23.8298H12.6821L12.5012 24.8134ZM15.0655 25.7969H14.0655L13.569 28.4967H14.569H15.569L16.0655 25.7969H15.0655ZM14.569 28.4967L14.7499 27.5132H12.0047L11.8239 28.4967L11.643 29.4802H14.3882L14.569 28.4967ZM11.0047 27.5132H12.0047L12.3204 25.7969H11.3204H10.3204L10.0047 27.5132H11.0047ZM6.40137 32.1801L6.22051 33.1636H13.7108L13.8917 32.1801L14.0725 31.1966H6.58223L6.40137 32.1801ZM13.8917 32.1801H12.8917L12.3952 34.88H13.3952H14.3952L14.8917 32.1801H13.8917ZM12.2143 35.8635L12.3952 34.88H6.90487L6.72401 35.8635L6.54315 36.847H12.0334L12.2143 35.8635ZM5.90487 34.88H6.90487L7.40137 32.1801H6.40137H5.40137L4.90487 34.88H5.90487ZM8.39772 6.39643L8.21685 7.37994H10.962L11.1429 6.39643L11.3237 5.41292H8.57858L8.39772 6.39643ZM11.1429 6.39643H10.1429L5.40137 32.1801H6.40137H7.40137L12.1429 6.39643H11.1429ZM6.40137 32.1801L6.58223 31.1966H3.83708L3.65622 32.1801L3.47536 33.1636H6.22051L6.40137 32.1801ZM2.83708 31.1966H3.83708L8.21685 7.37994H7.21685H6.21685L1.83708 31.1966H2.83708ZM12.8202 2.71305L12.6394 3.69656H21.8748L22.0557 2.71305L22.2365 1.72954H13.0011L12.8202 2.71305ZM22.8748 3.69656H21.8748L21.3783 6.39643H22.3783H23.3783L23.8748 3.69656H22.8748ZM22.3783 6.39643L22.5592 5.41292H11.3237L11.1429 6.39643L10.962 7.37994H22.1974L22.3783 6.39643ZM11.1429 6.39643H12.1429L12.6394 3.69656H11.6394H10.6394L10.1429 6.39643H11.1429ZM22.3783 6.39643L22.1974 7.37994H24.9426L25.1235 6.39643L25.3043 5.41292H22.5592L22.3783 6.39643ZM25.9426 7.37994H24.9426L21.2402 27.5132H22.2402H23.2402L26.9426 7.37994H25.9426ZM21.0593 28.4967L21.2402 27.5132H18.495L18.3142 28.4967L18.1333 29.4802H20.8785L21.0593 28.4967ZM18.3142 28.4967H19.3142L23.3783 6.39643H22.3783H21.3783L17.3142 28.4967H18.3142ZM48.917 10.0798L48.7361 11.0633H50.4813L50.6621 10.0798L50.843 9.09631H49.0978L48.917 10.0798ZM51.4813 11.0633H50.4813L46.7789 31.1966H47.7789H48.7789L52.4813 11.0633H51.4813ZM46.598 32.1801L46.7789 31.1966H44.0337L43.8528 32.1801L43.672 33.1636H46.4171L46.598 32.1801ZM43.8528 32.1801H44.8528L48.7361 11.0633H47.7361H46.7361L42.8528 32.1801H43.8528ZM32.6174 32.1801L32.4365 33.1636H43.672L43.8528 32.1801L44.0337 31.1966H32.7983L32.6174 32.1801ZM43.8528 32.1801H42.8528L42.3564 34.88H43.3564H44.3564L44.8528 32.1801H43.8528ZM42.1755 35.8635L42.3564 34.88H33.1209L32.94 35.8635L32.7592 36.847H41.9946L42.1755 35.8635ZM32.1209 34.88H33.1209L33.6174 32.1801H32.6174H31.6174L31.1209 34.88H32.1209ZM33.9364 10.0798L33.7555 11.0633H35.5007L35.6815 10.0798L35.8624 9.09631H34.1173L33.9364 10.0798ZM36.5007 11.0633H35.5007L31.6174 32.1801H32.6174H33.6174L37.5007 11.0633H36.5007ZM32.6174 32.1801L32.7983 31.1966H30.0531L29.8723 32.1801L29.6914 33.1636H32.4365L32.6174 32.1801ZM29.0531 31.1966H30.0531L33.7555 11.0633H32.7555H31.7555L28.0531 31.1966H29.0531ZM71.7462 28.4967L71.5654 29.4802H73.3105L73.4914 28.4967L73.6722 27.5132H71.9271L71.7462 28.4967ZM74.3105 29.4802H73.3105L72.9949 31.1966H73.9949H74.9949L75.3105 29.4802H74.3105ZM72.814 32.1801L72.9949 31.1966H70.2497L70.0689 32.1801L69.888 33.1636H72.6332L72.814 32.1801ZM70.0689 32.1801H71.0689L71.5654 29.4802H70.5654H69.5654L69.0689 32.1801H70.0689ZM58.8334 32.1801L58.6526 33.1636H69.888L70.0689 32.1801L70.2497 31.1966H59.0143L58.8334 32.1801ZM70.0689 32.1801H69.0689L68.5724 34.88H69.5724H70.5724L71.0689 32.1801H70.0689ZM68.3915 35.8635L68.5724 34.88H59.3369L59.1561 35.8635L58.9752 36.847H68.2107L68.3915 35.8635ZM58.3369 34.88H59.3369L59.8334 32.1801H58.8334H57.8334L57.3369 34.88H58.3369ZM59.4751 13.7632L59.2942 14.7467H62.0394L62.2202 13.7632L62.4011 12.7797H59.6559L59.4751 13.7632ZM62.2202 13.7632H61.2202L60.0464 20.1465H61.0464H62.0464L63.2202 13.7632H62.2202ZM61.8655 21.13L61.6846 22.1135H70.9201L71.1009 21.13L71.2818 20.1465H62.0464L61.8655 21.13ZM72.2818 20.1465H73.2818L74.4557 13.7632H73.4557H72.4557L71.2818 20.1465H72.2818ZM73.4557 13.7632L73.2748 14.7467H76.0199L76.2008 13.7632L76.3817 12.7797H73.6365L73.4557 13.7632ZM77.0199 14.7467H76.0199L74.3496 23.8298H75.3496H76.3496L78.0199 14.7467H77.0199ZM74.1687 24.8134L74.3496 23.8298H61.369L61.1881 24.8134L61.0073 25.7969H73.9879L74.1687 24.8134ZM60.0073 25.7969H59.0073L57.8334 32.1801H58.8334H59.8334L61.0073 25.7969H60.0073ZM58.8334 32.1801L59.0143 31.1966H56.2691L56.0883 32.1801L55.9074 33.1636H58.6526L58.8334 32.1801ZM55.2691 31.1966H56.2691L59.2942 14.7467H58.2942H57.2942L54.2691 31.1966H55.2691ZM63.8976 10.0798L63.7167 11.0633H72.9521L73.133 10.0798L73.3139 9.09631H64.0784L63.8976 10.0798ZM73.9521 11.0633H72.9521L72.4557 13.7632H73.4557H74.4557L74.9521 11.0633H73.9521ZM73.4557 13.7632L73.6365 12.7797H62.4011L62.2202 13.7632L62.0394 14.7467H73.2748L73.4557 13.7632ZM62.2202 13.7632H63.2202L63.7167 11.0633H62.7167H61.7167L61.2202 13.7632H62.2202ZM85.6911 13.7632L85.5102 14.7467H88.2554L88.4363 13.7632L88.6171 12.7797H85.872L85.6911 13.7632ZM88.4363 13.7632H87.4363L86.0815 21.13H87.0815H88.0815L89.4363 13.7632H88.4363ZM87.0815 21.13L87.2624 20.1465H84.5172L84.3364 21.13L84.1555 22.1135H86.9007L87.0815 21.13ZM83.5172 20.1465H84.5172L85.5102 14.7467H84.5102H83.5102L82.5172 20.1465H83.5172ZM97.6396 24.8134L97.4588 25.7969H100.204L100.385 24.8134L100.566 23.8298H97.8205L97.6396 24.8134ZM101.204 25.7969H100.204L99.2109 31.1966H100.211H101.211L102.204 25.7969H101.204ZM99.0301 32.1801L99.2109 31.1966H96.4658L96.2849 32.1801L96.1041 33.1636H98.8492L99.0301 32.1801ZM96.2849 32.1801H97.2849L98.6396 24.8134H97.6396H96.6396L95.2849 32.1801H96.2849ZM85.0495 32.1801L84.8686 33.1636H96.1041L96.2849 32.1801L96.4658 31.1966H85.2303L85.0495 32.1801ZM96.2849 32.1801H95.2849L94.7884 34.88H95.7884H96.7884L97.2849 32.1801H96.2849ZM94.6076 35.8635L94.7884 34.88H85.553L85.3721 35.8635L85.1912 36.847H94.4267L94.6076 35.8635ZM84.553 34.88H85.553L86.0495 32.1801H85.0495H84.0495L83.553 34.88H84.553ZM82.9817 28.4967L82.8008 29.4802H84.546L84.7268 28.4967L84.9077 27.5132H83.1625L82.9817 28.4967ZM85.546 29.4802H84.546L84.0495 32.1801H85.0495H86.0495L86.546 29.4802H85.546ZM85.0495 32.1801L85.2303 31.1966H82.4852L82.3043 32.1801L82.1235 33.1636H84.8686L85.0495 32.1801ZM81.4852 31.1966H82.4852L82.8008 29.4802H81.8008H80.8008L80.4852 31.1966H81.4852ZM87.0815 21.13L86.9007 22.1135H97.1361L97.317 21.13L97.4978 20.1465H87.2624L87.0815 21.13ZM98.1361 22.1135H97.1361L96.6396 24.8134H97.6396H98.6396L99.1361 22.1135H98.1361ZM97.6396 24.8134L97.8205 23.8298H87.585L87.4042 24.8134L87.2233 25.7969H97.4588L97.6396 24.8134ZM86.585 23.8298H87.585L88.0815 21.13H87.0815H86.0815L85.585 23.8298H86.585ZM99.6717 13.7632L99.4908 14.7467H102.236L102.417 13.7632L102.598 12.7797H99.8526L99.6717 13.7632ZM103.236 14.7467H102.236L101.92 16.4631H102.92H103.92L104.236 14.7467H103.236ZM101.739 17.4466L101.92 16.4631H100.175L99.9943 17.4466L99.8135 18.4301H101.559L101.739 17.4466ZM99.1752 16.4631H100.175L100.672 13.7632H99.6717H98.6717L98.1752 16.4631H99.1752ZM90.1136 10.0798L89.9327 11.0633H99.1682L99.3491 10.0798L99.5299 9.09631H90.2945L90.1136 10.0798ZM100.168 11.0633H99.1682L98.6717 13.7632H99.6717H100.672L101.168 11.0633H100.168ZM99.6717 13.7632L99.8526 12.7797H88.6171L88.4363 13.7632L88.2554 14.7467H99.4908L99.6717 13.7632ZM88.4363 13.7632H89.4363L89.9327 11.0633H88.9327H87.9327L87.4363 13.7632H88.4363ZM117.007 6.39643L116.826 7.37994H118.571L118.752 6.39643L118.933 5.41292H117.188L117.007 6.39643ZM119.571 7.37994H118.571L118.256 9.09631H119.256H120.256L120.571 7.37994H119.571ZM120.075 10.0798L119.894 11.0633H125.384L125.565 10.0798L125.746 9.09631H120.256L120.075 10.0798ZM126.384 11.0633H125.384L125.069 12.7797H126.069H127.069L127.384 11.0633H126.384ZM124.888 13.7632L125.069 12.7797H119.578L119.397 13.7632L119.217 14.7467H124.707L124.888 13.7632ZM118.217 14.7467H117.217L114.011 32.1801H115.011H116.011L119.217 14.7467H118.217ZM115.011 32.1801L115.192 31.1966H112.446L112.265 32.1801L112.085 33.1636H114.83L115.011 32.1801ZM111.446 31.1966H112.446L115.471 14.7467H114.471H113.471L110.446 31.1966H111.446ZM113.652 13.7632L113.833 12.7797H112.088L111.907 13.7632L111.726 14.7467H113.471L113.652 13.7632ZM111.088 12.7797H112.088L112.404 11.0633H111.404H110.404L110.088 12.7797H111.088ZM112.584 10.0798L112.404 11.0633H114.149L114.33 10.0798L114.51 9.09631H112.765L112.584 10.0798ZM115.51 9.09631H116.51L116.826 7.37994H115.826H114.826L114.51 9.09631H115.51ZM115.011 32.1801L114.83 33.1636H121.32L121.501 32.1801L121.682 31.1966H115.192L115.011 32.1801ZM122.32 33.1636H121.32L121.004 34.88H122.004H123.004L123.32 33.1636H122.32ZM120.824 35.8635L121.004 34.88H115.514L115.333 35.8635L115.152 36.847H120.643L120.824 35.8635ZM114.514 34.88H115.514L116.011 32.1801H115.011H114.011L113.514 34.88H114.514ZM146.291 10.0798L146.11 11.0633H151.6L151.781 10.0798L151.962 9.09631H146.472L146.291 10.0798ZM152.6 11.0633H151.6L151.285 12.7797H152.285H153.285L153.6 11.0633H152.6ZM151.104 13.7632L151.285 12.7797H144.794L144.613 13.7632L144.433 14.7467H150.923L151.104 13.7632ZM144.613 13.7632H145.613L146.11 11.0633H145.11H144.11L143.613 13.7632H144.613ZM141.868 13.7632L141.687 14.7467H144.433L144.613 13.7632L144.794 12.7797H142.049L141.868 13.7632ZM144.613 13.7632H143.613L143.117 16.4631H144.117H145.117L145.613 13.7632H144.613ZM142.936 17.4466L143.117 16.4631H140.372L140.191 17.4466L140.01 18.4301H142.755L142.936 17.4466ZM140.191 17.4466H141.191L141.687 14.7467H140.687H139.687L139.191 17.4466H140.191ZM135.055 10.0798L134.875 11.0633H136.62L136.801 10.0798L136.981 9.09631H135.236L135.055 10.0798ZM137.62 11.0633H136.62L135.627 16.4631H136.627H137.627L138.62 11.0633H137.62ZM137.446 17.4466L137.265 18.4301H140.01L140.191 17.4466L140.372 16.4631H137.627L137.446 17.4466ZM140.191 17.4466H139.191L138.694 20.1465H139.694H140.694L141.191 17.4466H140.191ZM138.514 21.13L138.694 20.1465H136.949L136.768 21.13L136.588 22.1135H138.333L138.514 21.13ZM135.588 22.1135H134.588L132.24 34.88H133.24H134.24L136.588 22.1135H135.588ZM132.059 35.8635L132.24 34.88H130.495L130.314 35.8635L130.133 36.847H131.878L132.059 35.8635ZM129.495 34.88H130.495L134.875 11.0633H133.875H132.875L128.495 34.88H129.495ZM160.594 13.7632L160.413 14.7467H163.158L163.339 13.7632L163.52 12.7797H160.775L160.594 13.7632ZM163.339 13.7632H162.339L161.843 16.4631H162.843H163.843L164.339 13.7632H163.339ZM161.662 17.4466L161.843 16.4631H160.098L159.917 17.4466L159.736 18.4301H161.481L161.662 17.4466ZM159.098 16.4631H160.098L160.413 14.7467H159.413H158.413L158.098 16.4631H159.098ZM158.562 24.8134L158.381 25.7969H161.126L161.307 24.8134L161.488 23.8298H158.743L158.562 24.8134ZM161.307 24.8134H160.307L158.952 32.1801H159.952H160.952L162.307 24.8134H161.307ZM159.952 32.1801L160.133 31.1966H157.388L157.207 32.1801L157.026 33.1636H159.772L159.952 32.1801ZM156.388 31.1966H157.388L158.381 25.7969H157.381H156.381L155.388 31.1966H156.388ZM174.575 13.7632L174.394 14.7467H177.139L177.32 13.7632L177.501 12.7797H174.755L174.575 13.7632ZM178.139 14.7467H177.139L173.437 34.88H174.437H175.437L179.139 14.7467H178.139ZM173.256 35.8635L173.437 34.88H160.456L160.275 35.8635L160.094 36.847H173.075L173.256 35.8635ZM159.456 34.88H160.456L160.952 32.1801H159.952H158.952L158.456 34.88H159.456ZM159.952 32.1801L159.772 33.1636H170.007L170.188 32.1801L170.369 31.1966H160.133L159.952 32.1801ZM171.369 31.1966H172.369L173.362 25.7969H172.362H171.362L170.369 31.1966H171.369ZM171.543 24.8134L171.723 23.8298H161.488L161.307 24.8134L161.126 25.7969H171.362L171.543 24.8134ZM161.307 24.8134H162.307L162.804 22.1135H161.804H160.804L160.307 24.8134H161.307ZM162.984 21.13L162.804 22.1135H172.039L172.22 21.13L172.401 20.1465H163.165L162.984 21.13ZM173.401 20.1465H174.401L175.575 13.7632H174.575H173.575L172.401 20.1465H173.401ZM165.017 10.0798L164.836 11.0633H174.071L174.252 10.0798L174.433 9.09631H165.197L165.017 10.0798ZM175.071 11.0633H174.071L173.575 13.7632H174.575H175.575L176.071 11.0633H175.071ZM174.575 13.7632L174.755 12.7797H163.52L163.339 13.7632L163.158 14.7467H174.394L174.575 13.7632ZM163.339 13.7632H164.339L164.836 11.0633H163.836H162.836L162.339 13.7632H163.339ZM186.81 13.7632L186.629 14.7467H189.374L189.555 13.7632L189.736 12.7797H186.991L186.81 13.7632ZM189.555 13.7632H188.555L185.168 32.1801H186.168H187.168L190.555 13.7632H189.555ZM186.168 32.1801L186.349 31.1966H183.604L183.423 32.1801L183.242 33.1636H185.988L186.168 32.1801ZM182.604 31.1966H183.604L186.629 14.7467H185.629H184.629L181.604 31.1966H182.604ZM203.823 2.71305L203.642 3.69656H205.387L205.568 2.71305L205.749 1.72954H204.004L203.823 2.71305ZM206.387 3.69656H205.387L199.653 34.88H200.653H201.653L207.387 3.69656H206.387ZM199.472 35.8635L199.653 34.88H186.672L186.491 35.8635L186.31 36.847H199.291L199.472 35.8635ZM185.672 34.88H186.672L187.168 32.1801H186.168H185.168L184.672 34.88H185.672ZM186.168 32.1801L185.988 33.1636H196.223L196.404 32.1801L196.585 31.1966H186.349L186.168 32.1801ZM197.585 31.1966H198.585L201.61 14.7467H200.61H199.61L196.585 31.1966H197.585ZM199.791 13.7632L199.972 12.7797H189.736L189.555 13.7632L189.374 14.7467H199.61L199.791 13.7632ZM189.555 13.7632H190.555L191.052 11.0633H190.052H189.052L188.555 13.7632H189.555ZM191.233 10.0798L191.052 11.0633H200.287L200.468 10.0798L200.649 9.09631H191.413L191.233 10.0798ZM201.649 9.09631H202.649L203.642 3.69656H202.642H201.642L200.649 9.09631H201.649ZM225.297 28.4967L225.116 29.4802H226.862L227.042 28.4967L227.223 27.5132H225.478L225.297 28.4967ZM227.862 29.4802H226.862L226.546 31.1966H227.546H228.546L228.862 29.4802H227.862ZM226.365 32.1801L226.546 31.1966H223.801L223.62 32.1801L223.439 33.1636H226.184L226.365 32.1801ZM223.62 32.1801H224.62L225.116 29.4802H224.116H223.116L222.62 32.1801H223.62ZM212.384 32.1801L212.204 33.1636H223.439L223.62 32.1801L223.801 31.1966H212.565L212.384 32.1801ZM223.62 32.1801H222.62L222.123 34.88H223.123H224.123L224.62 32.1801H223.62ZM221.943 35.8635L222.123 34.88H212.888L212.707 35.8635L212.526 36.847H221.762L221.943 35.8635ZM211.888 34.88H212.888L213.384 32.1801H212.384H211.384L210.888 34.88H211.888ZM213.026 13.7632L212.845 14.7467H215.59L215.771 13.7632L215.952 12.7797H213.207L213.026 13.7632ZM215.771 13.7632H214.771L213.597 20.1465H214.597H215.597L216.771 13.7632H215.771ZM215.417 21.13L215.236 22.1135H224.471L224.652 21.13L224.833 20.1465H215.597L215.417 21.13ZM225.833 20.1465H226.833L228.007 13.7632H227.007H226.007L224.833 20.1465H225.833ZM227.007 13.7632L226.826 14.7467H229.571L229.752 13.7632L229.933 12.7797H227.188L227.007 13.7632ZM230.571 14.7467H229.571L227.901 23.8298H228.901H229.901L231.571 14.7467H230.571ZM227.72 24.8134L227.901 23.8298H214.92L214.739 24.8134L214.558 25.7969H227.539L227.72 24.8134ZM213.558 25.7969H212.558L211.384 32.1801H212.384H213.384L214.558 25.7969H213.558ZM212.384 32.1801L212.565 31.1966H209.82L209.639 32.1801L209.458 33.1636H212.204L212.384 32.1801ZM208.82 31.1966H209.82L212.845 14.7467H211.845H210.845L207.82 31.1966H208.82ZM217.449 10.0798L217.268 11.0633H226.503L226.684 10.0798L226.865 9.09631H217.629L217.449 10.0798ZM227.503 11.0633H226.503L226.007 13.7632H227.007H228.007L228.503 11.0633H227.503ZM227.007 13.7632L227.188 12.7797H215.952L215.771 13.7632L215.59 14.7467H226.826L227.007 13.7632ZM215.771 13.7632H216.771L217.268 11.0633H216.268H215.268L214.771 13.7632H215.771ZM251.155 10.0798L250.974 11.0633H256.464L256.645 10.0798L256.826 9.09631H251.336L251.155 10.0798ZM257.464 11.0633H256.464L256.149 12.7797H257.149H258.149L258.464 11.0633H257.464ZM255.968 13.7632L256.149 12.7797H249.658L249.478 13.7632L249.297 14.7467H255.787L255.968 13.7632ZM249.478 13.7632H250.478L250.974 11.0633H249.974H248.974L248.478 13.7632H249.478ZM246.732 13.7632L246.552 14.7467H249.297L249.478 13.7632L249.658 12.7797H246.913L246.732 13.7632ZM249.478 13.7632H248.478L247.981 16.4631H248.981H249.981L250.478 13.7632H249.478ZM247.8 17.4466L247.981 16.4631H245.236L245.055 17.4466L244.874 18.4301H247.619L247.8 17.4466ZM245.055 17.4466H246.055L246.552 14.7467H245.552H244.552L244.055 17.4466H245.055ZM239.92 10.0798L239.739 11.0633H241.484L241.665 10.0798L241.846 9.09631H240.1L239.92 10.0798ZM242.484 11.0633H241.484L240.491 16.4631H241.491H242.491L243.484 11.0633H242.484ZM242.31 17.4466L242.129 18.4301H244.874L245.055 17.4466L245.236 16.4631H242.491L242.31 17.4466ZM245.055 17.4466H244.055L243.559 20.1465H244.559H245.559L246.055 17.4466H245.055ZM243.378 21.13L243.559 20.1465H241.813L241.633 21.13L241.452 22.1135H243.197L243.378 21.13ZM240.452 22.1135H239.452L237.104 34.88H238.104H239.104L241.452 22.1135H240.452ZM236.923 35.8635L237.104 34.88H235.359L235.178 35.8635L234.997 36.847H236.742L236.923 35.8635ZM234.359 34.88H235.359L239.739 11.0633H238.739H237.739L233.359 34.88H234.359ZM235.178 35.8635L235.359 34.88H234.359H233.359C233.159 35.9663 233.893 36.847 234.997 36.847L235.178 35.8635ZM238.104 34.88H237.104L236.923 35.8635L236.742 36.847C237.847 36.847 238.904 35.9663 239.104 34.88H238.104ZM241.633 21.13L241.813 20.1465C240.709 20.1465 239.651 21.0271 239.452 22.1135H240.452H241.452L241.633 21.13ZM244.559 20.1465H243.559L243.378 21.13L243.197 22.1135C244.301 22.1135 245.359 21.2328 245.559 20.1465H244.559ZM241.491 16.4631H240.491C240.291 17.5494 241.025 18.4301 242.129 18.4301L242.31 17.4466L242.491 16.4631H241.491ZM241.665 10.0798L241.484 11.0633H242.484H243.484C243.684 9.97697 242.95 9.09631 241.846 9.09631L241.665 10.0798ZM239.92 10.0798L240.1 9.09631C238.996 9.09631 237.938 9.97697 237.739 11.0633H238.739H239.739L239.739 11.0633L239.92 10.0798ZM248.981 16.4631H247.981L247.8 17.4466L247.619 18.4301C248.724 18.4301 249.781 17.5494 249.981 16.4631H248.981ZM246.732 13.7632L246.913 12.7797C245.809 12.7797 244.751 13.6604 244.552 14.7467H245.552H246.552L246.732 13.7632ZM257.149 12.7797H256.149L255.968 13.7632L255.787 14.7467C256.892 14.7467 257.949 13.866 258.149 12.7797H257.149ZM256.645 10.0798L256.464 11.0633H257.464H258.464C258.664 9.97697 257.931 9.09631 256.826 9.09631L256.645 10.0798ZM251.155 10.0798L251.336 9.09631C250.231 9.09631 249.174 9.97697 248.974 11.0633H249.974H250.974L251.155 10.0798ZM226.684 10.0798L226.503 11.0633H226.503H227.503H228.503C228.703 9.97697 227.969 9.09631 226.865 9.09631L226.684 10.0798ZM217.449 10.0798L217.629 9.09631C216.525 9.09631 215.468 9.97697 215.268 11.0633H216.268H217.268L217.449 10.0798ZM209.639 32.1801L209.82 31.1966H208.82H207.82C207.62 32.283 208.354 33.1636 209.458 33.1636L209.639 32.1801ZM214.739 24.8134L214.92 23.8298C213.815 23.8298 212.758 24.7105 212.558 25.7969H213.558H214.558L214.739 24.8134ZM228.901 23.8298H227.901L227.72 24.8134L227.539 25.7969C228.643 25.7969 229.701 24.9162 229.901 23.8298H228.901ZM229.752 13.7632L229.571 14.7467H230.571H231.571C231.771 13.6604 231.037 12.7797 229.933 12.7797L229.752 13.7632ZM224.652 21.13L224.471 22.1135C225.576 22.1135 226.633 21.2328 226.833 20.1465H225.833H224.833H224.833L224.652 21.13ZM214.597 20.1465H213.597C213.398 21.2328 214.131 22.1135 215.236 22.1135L215.417 21.13L215.597 20.1465L215.597 20.1465H214.597ZM213.026 13.7632L213.207 12.7797C212.102 12.7797 211.045 13.6604 210.845 14.7467H211.845H212.845L212.845 14.7467L213.026 13.7632ZM212.707 35.8635L212.888 34.88H211.888H210.888C210.688 35.9663 211.422 36.847 212.526 36.847L212.707 35.8635ZM223.123 34.88H222.123L221.943 35.8635L221.762 36.847C222.866 36.847 223.924 35.9663 224.123 34.88H223.123ZM227.546 31.1966H226.546L226.365 32.1801L226.184 33.1636C227.289 33.1636 228.346 32.283 228.546 31.1966H227.546ZM227.042 28.4967L226.862 29.4802H227.862H228.862C229.061 28.3939 228.328 27.5132 227.223 27.5132L227.042 28.4967ZM225.297 28.4967L225.478 27.5132C224.374 27.5132 223.316 28.3939 223.116 29.4802H224.116H225.116L225.297 28.4967ZM200.468 10.0798L200.287 11.0633C201.392 11.0633 202.449 10.1827 202.649 9.09631H201.649H200.649L200.468 10.0798ZM190.052 11.0633H191.052L191.233 10.0798L191.413 9.09631C190.309 9.09631 189.251 9.97697 189.052 11.0633H190.052ZM200.61 14.7467H201.61C201.81 13.6604 201.076 12.7797 199.972 12.7797L199.791 13.7632L199.61 14.7467L199.61 14.7467H200.61ZM196.404 32.1801L196.223 33.1636C197.328 33.1636 198.385 32.283 198.585 31.1966H197.585H196.585L196.404 32.1801ZM186.491 35.8635L186.672 34.88H185.672H184.672C184.472 35.9663 185.206 36.847 186.31 36.847L186.491 35.8635ZM203.823 2.71305L204.004 1.72954C202.899 1.72954 201.842 2.6102 201.642 3.69656H202.642H203.642L203.642 3.69656L203.823 2.71305ZM183.423 32.1801L183.604 31.1966H182.604H181.604C181.404 32.283 182.138 33.1636 183.242 33.1636L183.423 32.1801ZM172.22 21.13L172.039 22.1135C173.144 22.1135 174.201 21.2328 174.401 20.1465H173.401H172.401L172.22 21.13ZM160.275 35.8635L160.456 34.88H159.456H158.456C158.256 35.9663 158.99 36.847 160.094 36.847L160.275 35.8635ZM157.207 32.1801L157.388 31.1966H156.388H155.388C155.188 32.283 155.922 33.1636 157.026 33.1636L157.207 32.1801ZM159.917 17.4466L160.098 16.4631H159.098H158.098C157.898 17.5494 158.631 18.4301 159.736 18.4301L159.917 17.4466ZM162.843 16.4631H161.843L161.662 17.4466L161.481 18.4301C162.586 18.4301 163.643 17.5494 163.843 16.4631H162.843ZM136.768 21.13L136.949 20.1465C135.845 20.1465 134.787 21.0271 134.588 22.1135H135.588H136.588L136.768 21.13ZM139.694 20.1465H138.694L138.514 21.13L138.333 22.1135C139.437 22.1135 140.495 21.2328 140.694 20.1465H139.694ZM136.627 16.4631H135.627C135.427 17.5494 136.16 18.4301 137.265 18.4301L137.446 17.4466L137.627 16.4631H136.627ZM136.801 10.0798L136.62 11.0633H137.62H138.62C138.819 9.97697 138.086 9.09631 136.981 9.09631L136.801 10.0798ZM135.055 10.0798L135.236 9.09631C134.132 9.09631 133.074 9.97697 132.875 11.0633H133.875H134.875L134.875 11.0633L135.055 10.0798ZM144.117 16.4631H143.117L142.936 17.4466L142.755 18.4301C143.86 18.4301 144.917 17.5494 145.117 16.4631H144.117ZM141.868 13.7632L142.049 12.7797C140.945 12.7797 139.887 13.6604 139.687 14.7467H140.687H141.687L141.868 13.7632ZM152.285 12.7797H151.285L151.104 13.7632L150.923 14.7467C152.027 14.7467 153.085 13.866 153.285 12.7797H152.285ZM151.781 10.0798L151.6 11.0633H152.6H153.6C153.8 9.97697 153.067 9.09631 151.962 9.09631L151.781 10.0798ZM146.291 10.0798L146.472 9.09631C145.367 9.09631 144.31 9.97697 144.11 11.0633H145.11H146.11L146.291 10.0798ZM115.333 35.8635L115.514 34.88H114.514H113.514C113.314 35.9663 114.048 36.847 115.152 36.847L115.333 35.8635ZM122.004 34.88H121.004L120.824 35.8635L120.643 36.847C121.747 36.847 122.805 35.9663 123.004 34.88H122.004ZM121.501 32.1801L121.32 33.1636H122.32H123.32C123.52 32.0773 122.786 31.1966 121.682 31.1966L121.501 32.1801ZM114.33 10.0798L114.149 11.0633C115.253 11.0633 116.311 10.1827 116.51 9.09631H115.51H114.51L114.33 10.0798ZM111.404 11.0633H112.404L112.584 10.0798L112.765 9.09631C111.661 9.09631 110.603 9.97697 110.404 11.0633H111.404ZM111.907 13.7632L112.088 12.7797H111.088H110.088C109.888 13.866 110.622 14.7467 111.726 14.7467L111.907 13.7632ZM114.471 14.7467H115.471C115.671 13.6604 114.938 12.7797 113.833 12.7797L113.652 13.7632L113.471 14.7467L113.471 14.7467H114.471ZM112.265 32.1801L112.446 31.1966H111.446H110.446C110.247 32.283 110.98 33.1636 112.085 33.1636L112.265 32.1801ZM119.397 13.7632L119.578 12.7797C118.474 12.7797 117.416 13.6604 117.217 14.7467H118.217H119.217L119.397 13.7632ZM126.069 12.7797H125.069L124.888 13.7632L124.707 14.7467C125.811 14.7467 126.869 13.866 127.069 12.7797H126.069ZM125.565 10.0798L125.384 11.0633H126.384H127.384C127.584 9.97697 126.851 9.09631 125.746 9.09631L125.565 10.0798ZM119.256 9.09631H118.256C118.056 10.1827 118.789 11.0633 119.894 11.0633L120.075 10.0798L120.256 9.09631H119.256ZM118.752 6.39643L118.571 7.37994H119.571H120.571C120.771 6.29359 120.038 5.41292 118.933 5.41292L118.752 6.39643ZM117.007 6.39643L117.188 5.41292C116.083 5.41292 115.026 6.29359 114.826 7.37994H115.826H116.826L117.007 6.39643ZM99.3491 10.0798L99.1682 11.0633H100.168H101.168C101.368 9.97697 100.634 9.09631 99.5299 9.09631L99.3491 10.0798ZM90.1136 10.0798L90.2945 9.09631C89.1899 9.09631 88.1325 9.97697 87.9327 11.0633H88.9327H89.9327L90.1136 10.0798ZM99.9943 17.4466L100.175 16.4631H99.1752H98.1752C97.9754 17.5494 98.7089 18.4301 99.8135 18.4301L99.9943 17.4466ZM102.92 16.4631H101.92L101.739 17.4466L101.559 18.4301C102.663 18.4301 103.721 17.5494 103.92 16.4631H102.92ZM102.417 13.7632L102.236 14.7467H103.236H104.236C104.436 13.6604 103.702 12.7797 102.598 12.7797L102.417 13.7632ZM84.7268 28.4967L84.546 29.4802H84.546H85.546H86.546C86.7457 28.3939 86.0123 27.5132 84.9077 27.5132L84.7268 28.4967ZM84.3364 21.13L84.5172 20.1465H83.5172H82.5172C82.3175 21.2328 83.051 22.1135 84.1555 22.1135L84.3364 21.13ZM63.8976 10.0798L64.0784 9.09631C62.9739 9.09631 61.9165 9.97697 61.7167 11.0633H62.7167H63.7167L63.8976 10.0798ZM56.0883 32.1801L56.2691 31.1966H55.2691H54.2691C54.0694 32.283 54.8029 33.1636 55.9074 33.1636L56.0883 32.1801ZM61.1881 24.8134L61.369 23.8298C60.2644 23.8298 59.2071 24.7105 59.0073 25.7969H60.0073H61.0073L61.1881 24.8134ZM75.3496 23.8298H74.3496L74.1687 24.8134L73.9879 25.7969C75.0924 25.7969 76.1498 24.9162 76.3496 23.8298H75.3496ZM76.2008 13.7632L76.0199 14.7467H77.0199H78.0199C78.2197 13.6604 77.4862 12.7797 76.3817 12.7797L76.2008 13.7632ZM71.1009 21.13L70.9201 22.1135C72.0246 22.1135 73.082 21.2328 73.2818 20.1465H72.2818H71.2818L71.1009 21.13ZM61.0464 20.1465H60.0464C59.8466 21.2328 60.5801 22.1135 61.6846 22.1135L61.8655 21.13L62.0464 20.1465L62.0464 20.1465H61.0464ZM59.4751 13.7632L59.6559 12.7797C58.5514 12.7797 57.494 13.6604 57.2942 14.7467H58.2942H59.2942L59.2942 14.7467L59.4751 13.7632ZM59.1561 35.8635L59.3369 34.88H58.3369H57.3369C57.1372 35.9663 57.8706 36.847 58.9752 36.847L59.1561 35.8635ZM69.5724 34.88H68.5724L68.3915 35.8635L68.2107 36.847C69.3152 36.847 70.3726 35.9663 70.5724 34.88H69.5724ZM73.9949 31.1966H72.9949L72.814 32.1801L72.6332 33.1636C73.7377 33.1636 74.7951 32.283 74.9949 31.1966H73.9949ZM73.4914 28.4967L73.3105 29.4802H74.3105H75.3105C75.5103 28.3939 74.7768 27.5132 73.6722 27.5132L73.4914 28.4967ZM35.6815 10.0798L35.5007 11.0633H36.5007H37.5007C37.7005 9.97697 36.967 9.09631 35.8624 9.09631L35.6815 10.0798ZM33.9364 10.0798L34.1173 9.09631C33.0127 9.09631 31.9553 9.97697 31.7555 11.0633H32.7555H33.7555L33.7555 11.0633L33.9364 10.0798ZM200.653 34.88H199.653L199.472 35.8635L199.291 36.847C200.395 36.847 201.453 35.9663 201.653 34.88H200.653ZM32.94 35.8635L33.1209 34.88H32.1209H31.1209C30.9211 35.9663 31.6546 36.847 32.7592 36.847L32.94 35.8635ZM47.7789 31.1966H46.7789L46.598 32.1801L46.4171 33.1636C47.5217 33.1636 48.5791 32.283 48.7789 31.1966H47.7789ZM50.6621 10.0798L50.4813 11.0633H51.4813H52.4813C52.681 9.97697 51.9476 9.09631 50.843 9.09631L50.6621 10.0798ZM186.81 13.7632L186.991 12.7797C185.886 12.7797 184.829 13.6604 184.629 14.7467H185.629H186.629L186.629 14.7467L186.81 13.7632ZM48.917 10.0798L49.0978 9.09631C47.9933 9.09631 46.9359 9.97697 46.7361 11.0633H47.7361H48.7361L48.7361 11.0633L48.917 10.0798ZM174.252 10.0798L174.071 11.0633H175.071H176.071C176.271 9.97697 175.537 9.09631 174.433 9.09631L174.252 10.0798ZM22.2402 27.5132H21.2402L21.0593 28.4967L20.8785 29.4802C21.983 29.4802 23.0404 28.5996 23.2402 27.5132H22.2402ZM165.017 10.0798L165.197 9.09631C164.093 9.09631 163.035 9.97697 162.836 11.0633H163.836H164.836L165.017 10.0798ZM25.1235 6.39643L24.9426 7.37994H25.9426H26.9426C27.1424 6.29359 26.4089 5.41292 25.3043 5.41292L25.1235 6.39643ZM87.4042 24.8134L87.585 23.8298H87.585H86.585H85.585C85.3853 24.9162 86.1187 25.7969 87.2233 25.7969L87.4042 24.8134ZM161.804 22.1135H162.804L162.984 21.13L163.165 20.1465C162.061 20.1465 161.003 21.0271 160.804 22.1135H161.804ZM22.0557 2.71305L21.8748 3.69656H22.8748H23.8748C24.0746 2.6102 23.3411 1.72954 22.2365 1.72954L22.0557 2.71305ZM97.317 21.13L97.1361 22.1135H98.1361H99.1361C99.3359 21.0271 98.6024 20.1465 97.4978 20.1465L97.317 21.13ZM172.362 25.7969H173.362C173.561 24.7105 172.828 23.8298 171.723 23.8298L171.543 24.8134L171.362 25.7969L171.362 25.7969H172.362ZM12.8202 2.71305L13.0011 1.72954C11.8965 1.72954 10.8391 2.6102 10.6394 3.69656H11.6394H12.6394L12.8202 2.71305ZM82.3043 32.1801L82.4852 31.1966H81.4852H80.4852C80.2854 32.283 81.0189 33.1636 82.1235 33.1636L82.3043 32.1801ZM170.188 32.1801L170.007 33.1636C171.112 33.1636 172.169 32.283 172.369 31.1966H171.369H170.369L170.188 32.1801ZM3.65622 32.1801L3.83708 31.1966H2.83708H1.83708C1.63731 32.283 2.37079 33.1636 3.47536 33.1636L3.65622 32.1801ZM95.7884 34.88H94.7884L94.6076 35.8635L94.4267 36.847C95.5313 36.847 96.5886 35.9663 96.7884 34.88H95.7884ZM13.3952 34.88H12.3952L12.2143 35.8635L12.0334 36.847C13.138 36.847 14.1954 35.9663 14.3952 34.88H13.3952ZM11.8239 28.4967L12.0047 27.5132H11.0047H10.0047C9.80496 28.5996 10.5384 29.4802 11.643 29.4802L11.8239 28.4967ZM71.7462 28.4967L71.9271 27.5132C70.8225 27.5132 69.7651 28.3939 69.5654 29.4802H70.5654H71.5654L71.7462 28.4967ZM100.211 31.1966H99.2109L99.0301 32.1801L98.8492 33.1636C99.9538 33.1636 101.011 32.283 101.211 31.1966H100.211ZM14.2464 24.8134L14.0655 25.7969H15.0655H16.0655C16.2653 24.7105 15.5318 23.8298 14.4272 23.8298L14.2464 24.8134ZM205.568 2.71305L205.387 3.69656H206.387H207.387C207.587 2.6102 206.853 1.72954 205.749 1.72954L205.568 2.71305ZM43.3564 34.88H42.3564L42.1755 35.8635L41.9946 36.847C43.0992 36.847 44.1566 35.9663 44.3564 34.88H43.3564ZM160.594 13.7632L160.775 12.7797C159.67 12.7797 158.613 13.6604 158.413 14.7467H159.413H160.413L160.594 13.7632ZM17.9595 35.8635L18.1403 34.88H17.1403H16.1403C15.9405 35.9663 16.674 36.847 17.7786 36.847L17.9595 35.8635ZM29.8723 32.1801L30.0531 31.1966H29.0531H28.0531C27.8533 32.283 28.5868 33.1636 29.6914 33.1636L29.8723 32.1801ZM100.385 24.8134L100.204 25.7969H101.204H102.204C102.404 24.7105 101.67 23.8298 100.566 23.8298L100.385 24.8134ZM158.562 24.8134L158.743 23.8298C157.638 23.8298 156.581 24.7105 156.381 25.7969H157.381H158.381L158.381 25.7969L158.562 24.8134ZM12.5012 24.8134L12.6821 23.8298C11.5775 23.8298 10.5201 24.7105 10.3204 25.7969H11.3204H12.3204L12.3204 25.7969L12.5012 24.8134ZM82.9817 28.4967L83.1625 27.5132C82.058 27.5132 81.0006 28.3939 80.8008 29.4802H81.8008H82.8008L82.9817 28.4967ZM174.437 34.88H173.437L173.256 35.8635L173.075 36.847C174.179 36.847 175.237 35.9663 175.437 34.88H174.437ZM8.39772 6.39643L8.57858 5.41292C7.47401 5.41292 6.41663 6.29359 6.21685 7.37994H7.21685H8.21685L8.21685 7.37994L8.39772 6.39643ZM85.6911 13.7632L85.872 12.7797C84.7674 12.7797 83.71 13.6604 83.5102 14.7467H84.5102H85.5102L85.5102 14.7467L85.6911 13.7632ZM130.314 35.8635L130.495 34.88H129.495H128.495C128.295 35.9663 129.028 36.847 130.133 36.847L130.314 35.8635ZM20.8855 34.88H19.8855L19.7046 35.8635L19.5237 36.847C20.6283 36.847 21.6857 35.9663 21.8855 34.88H20.8855ZM85.3721 35.8635L85.553 34.88H85.553H84.553H83.553C83.3532 35.9663 84.0867 36.847 85.1912 36.847L85.3721 35.8635ZM177.32 13.7632L177.139 14.7467H178.139H179.139C179.339 13.6604 178.605 12.7797 177.501 12.7797L177.32 13.7632ZM6.72401 35.8635L6.90487 34.88H6.90487H5.90487H4.90487C4.7051 35.9663 5.43858 36.847 6.54315 36.847L6.72401 35.8635ZM73.133 10.0798L72.9521 11.0633H73.9521H74.9521C75.1519 9.97697 74.4184 9.09631 73.3139 9.09631L73.133 10.0798ZM133.24 34.88H132.24L132.059 35.8635L131.878 36.847C132.983 36.847 134.04 35.9663 134.24 34.88H133.24ZM20.382 32.1801L20.2011 33.1636H21.2011H22.2011C22.4009 32.0773 21.6674 31.1966 20.5628 31.1966L20.382 32.1801Z" fill="#34B1D8" mask="url(#path-1-outside-1_56_305)"/>
<mask id="mask0_56_305" style="mask-type:alpha" maskUnits="userSpaceOnUse" x="0" y="0" width="258" height="36">
<path d="M16.1416 30.6257H19.5854C19.7508 30.6257 19.8607 30.7575 19.8307 30.9202L19.262 34.0122C19.2321 34.1748 19.0738 34.3067 18.9084 34.3067H15.764C15.5986 34.3067 15.4888 34.1748 15.5187 34.0122L16.1416 30.6257ZM13.0753 26.9447H16.8186L16.1416 30.6257H12.3983L13.0753 26.9447ZM9.95481 23.5582C9.98473 23.3956 10.1431 23.2637 10.3084 23.2637H13.4528C13.6182 23.2637 13.7281 23.3956 13.6981 23.5582L13.0753 26.9447H9.63141C9.46602 26.9447 9.3562 26.8129 9.38611 26.6502L9.95481 23.5582ZM4.91159 30.6257H12.3983L11.7754 34.0122C11.7455 34.1748 11.5871 34.3067 11.4218 34.3067H4.53403C4.36864 34.3067 4.25881 34.1748 4.28872 34.0122L4.91159 30.6257ZM5.85329 5.15336C5.8832 4.99072 6.04153 4.85888 6.20692 4.85888H9.65078L4.91159 30.6257H1.46772C1.30233 30.6257 1.19251 30.4938 1.22242 30.3312L5.85329 5.15336ZM10.2737 1.47239C10.3036 1.30975 10.4619 1.17791 10.6273 1.17791H21.2583C21.4237 1.17791 21.5336 1.30975 21.5036 1.47239L20.8808 4.85888H9.65078L10.2737 1.47239ZM20.8808 4.85888H24.3246C24.49 4.85888 24.5999 4.99072 24.5699 5.15336L20.6161 26.6502C20.5862 26.8129 20.4279 26.9447 20.2625 26.9447H16.8186L20.8808 4.85888Z" fill="white"/>
<path d="M46.3529 8.83433C46.3828 8.67169 46.5411 8.53985 46.7065 8.53985H49.8509C50.0163 8.53985 50.1261 8.67169 50.0962 8.83433L46.1424 30.3312C46.1125 30.4938 45.9542 30.6257 45.7888 30.6257H42.3449L46.3529 8.83433ZM31.1149 30.6257H42.3449L41.722 34.0122C41.6921 34.1748 41.5338 34.3067 41.3684 34.3067H30.7373C30.572 34.3067 30.4621 34.1748 30.492 34.0122L31.1149 30.6257ZM31.3796 8.83433C31.4095 8.67169 31.5678 8.53985 31.7332 8.53985H34.8776C35.043 8.53985 35.1528 8.67169 35.1229 8.83433L31.1149 30.6257H27.671C27.5056 30.6257 27.3958 30.4938 27.4257 30.3312L31.3796 8.83433Z" fill="white"/>
<path d="M69.1711 27.2392C69.201 27.0765 69.3593 26.9447 69.5247 26.9447H72.6691C72.8345 26.9447 72.9443 27.0765 72.9144 27.2392L72.3457 30.3312C72.3158 30.4938 72.1575 30.6257 71.9921 30.6257H68.5482L69.1711 27.2392ZM57.3182 30.6257H68.5482L67.9254 34.0122C67.8954 34.1748 67.7371 34.3067 67.5717 34.3067H56.9407C56.7753 34.3067 56.6654 34.1748 56.6954 34.0122L57.3182 30.6257ZM56.9059 12.5153C56.9358 12.3527 57.0941 12.2208 57.2595 12.2208H60.7034L59.4035 19.2883C59.3736 19.4509 59.4834 19.5828 59.6488 19.5828H70.2798C70.4452 19.5828 70.6036 19.4509 70.6335 19.2883L71.9334 12.2208H75.3772C75.5426 12.2208 75.6524 12.3527 75.6225 12.5153L73.6998 22.9693C73.6699 23.1319 73.5115 23.2637 73.3461 23.2637H58.9717C58.8064 23.2637 58.648 23.3956 58.6181 23.5582L57.3182 30.6257H53.8744C53.709 30.6257 53.5991 30.4938 53.6291 30.3312L56.9059 12.5153ZM61.3262 8.83433C61.3561 8.67169 61.5145 8.53985 61.6799 8.53985H72.3109C72.4763 8.53985 72.5861 8.67169 72.5562 8.83433L71.9334 12.2208H60.7034L61.3262 8.83433Z" fill="white"/>
<path d="M83.1092 12.5153C83.1391 12.3527 83.2974 12.2208 83.4628 12.2208H86.9067L85.5526 19.5828H82.1088C81.9434 19.5828 81.8335 19.4509 81.8635 19.2883L83.1092 12.5153ZM96.1056 23.2637H99.5495C99.7149 23.2637 99.8247 23.3956 99.7948 23.5582L98.549 30.3312C98.5191 30.4938 98.3608 30.6257 98.1954 30.6257H94.7515L96.1056 23.2637ZM83.5215 30.6257H94.7515L94.1287 34.0122C94.0988 34.1748 93.9404 34.3067 93.775 34.3067H83.144C82.9786 34.3067 82.8688 34.1748 82.8987 34.0122L83.5215 30.6257ZM80.4011 27.2392C80.431 27.0765 80.5893 26.9447 80.7547 26.9447H83.8991C84.0645 26.9447 84.1743 27.0765 84.1444 27.2392L83.5215 30.6257H80.0777C79.9123 30.6257 79.8025 30.4938 79.8324 30.3312L80.4011 27.2392ZM85.5526 19.5828H96.4832C96.6485 19.5828 96.7584 19.7146 96.7285 19.8772L96.1056 23.2637H85.1751C85.0097 23.2637 84.8998 23.1319 84.9298 22.9693L85.5526 19.5828ZM98.1367 12.2208H101.581C101.746 12.2208 101.856 12.3527 101.826 12.5153L101.257 15.6073C101.227 15.77 101.069 15.9018 100.904 15.9018H97.7591C97.5937 15.9018 97.4839 15.77 97.5138 15.6073L98.1367 12.2208ZM87.5295 8.83433C87.5595 8.67169 87.7178 8.53985 87.8832 8.53985H98.5142C98.6796 8.53985 98.7895 8.67169 98.7595 8.83433L98.1367 12.2208H86.9067L87.5295 8.83433Z" fill="white"/>
<path d="M114.41 5.15336C114.44 4.99072 114.598 4.85888 114.764 4.85888H117.908C118.073 4.85888 118.183 4.99072 118.153 5.15336L117.585 8.24537C117.555 8.40801 117.664 8.53985 117.83 8.53985H124.718C124.883 8.53985 124.993 8.67169 124.963 8.83433L124.394 11.9263C124.364 12.089 124.206 12.2208 124.041 12.2208H117.153C116.987 12.2208 116.829 12.3527 116.799 12.5153L113.468 30.6257H110.024C109.859 30.6257 109.749 30.4938 109.779 30.3312L113.056 12.5153C113.086 12.3527 112.976 12.2208 112.811 12.2208H109.666C109.501 12.2208 109.391 12.089 109.421 11.9263L109.99 8.83433C110.019 8.67169 110.178 8.53985 110.343 8.53985H113.488C113.653 8.53985 113.811 8.40801 113.841 8.24537L114.41 5.15336ZM113.468 30.6257H120.655C120.821 30.6257 120.931 30.7575 120.901 30.9202L120.332 34.0122C120.302 34.1748 120.144 34.3067 119.978 34.3067H113.091C112.925 34.3067 112.815 34.1748 112.845 34.0122L113.468 30.6257Z" fill="white"/>
<path d="M143.68 8.83433C143.709 8.67169 143.868 8.53985 144.033 8.53985H150.921C151.086 8.53985 151.196 8.67169 151.166 8.83433L150.597 11.9263C150.568 12.089 150.409 12.2208 150.244 12.2208H143.057L143.68 8.83433ZM139.259 12.5153C139.289 12.3527 139.447 12.2208 139.613 12.2208H143.057L142.434 15.6073C142.404 15.77 142.246 15.9018 142.08 15.9018H138.636L139.259 12.5153ZM132.45 8.83433C132.479 8.6717 132.638 8.53985 132.803 8.53985H135.948C136.113 8.53985 136.223 8.67169 136.193 8.83433L134.947 15.6073C134.917 15.77 135.027 15.9018 135.192 15.9018H138.636L138.013 19.2883C137.984 19.4509 137.825 19.5828 137.66 19.5828H134.515C134.35 19.5828 134.192 19.7146 134.162 19.8772L131.562 34.0122C131.532 34.1748 131.374 34.3067 131.208 34.3067H128.064C127.899 34.3067 127.789 34.1748 127.819 34.0122L132.45 8.83433Z" fill="white"/>
<path d="M157.976 12.5153C158.006 12.3527 158.164 12.2208 158.329 12.2208H161.773L161.15 15.6073C161.121 15.77 160.962 15.9018 160.797 15.9018H157.652C157.487 15.9018 157.377 15.77 157.407 15.6073L157.976 12.5153ZM155.945 23.5582C155.975 23.3956 156.133 23.2637 156.298 23.2637H159.742L158.388 30.6257H154.944C154.779 30.6257 154.669 30.4938 154.699 30.3312L155.945 23.5582ZM173.003 12.2208H176.447C176.613 12.2208 176.722 12.3527 176.692 12.5153L172.739 34.0122C172.709 34.1748 172.55 34.3067 172.385 34.3067H158.011C157.845 34.3067 157.735 34.1748 157.765 34.0122L158.388 30.6257H169.319C169.484 30.6257 169.642 30.4938 169.672 30.3312L170.918 23.5582C170.948 23.3956 170.838 23.2637 170.673 23.2637H159.742L160.365 19.8772C160.395 19.7146 160.553 19.5828 160.719 19.5828H171.35C171.515 19.5828 171.673 19.4509 171.703 19.2883L173.003 12.2208ZM162.396 8.83433C162.426 8.67169 162.584 8.53985 162.75 8.53985H173.381C173.546 8.53985 173.656 8.67169 173.626 8.83433L173.003 12.2208H161.773L162.396 8.83433Z" fill="white"/>
<path d="M184.179 12.5153C184.209 12.3527 184.367 12.2208 184.533 12.2208H187.977L184.591 30.6257H181.148C180.982 30.6257 180.872 30.4938 180.902 30.3312L184.179 12.5153ZM201.184 1.47239C201.213 1.30975 201.372 1.17791 201.537 1.17791H204.682C204.847 1.17791 204.957 1.30975 204.927 1.47239L198.942 34.0122C198.912 34.1748 198.754 34.3067 198.588 34.3067H184.214C184.049 34.3067 183.939 34.1748 183.969 34.0122L184.591 30.6257H195.522C195.687 30.6257 195.846 30.4938 195.876 30.3312L199.152 12.5153C199.182 12.3527 199.073 12.2208 198.907 12.2208H187.977L188.6 8.83433C188.629 8.67169 188.788 8.53985 188.953 8.53985H199.584C199.75 8.53985 199.908 8.40801 199.938 8.24537L201.184 1.47239Z" fill="white"/>
<path d="M222.648 27.2392C222.678 27.0765 222.836 26.9447 223.001 26.9447H226.146C226.311 26.9447 226.421 27.0765 226.391 27.2392L225.822 30.3312C225.792 30.4938 225.634 30.6257 225.469 30.6257H222.025L222.648 27.2392ZM210.795 30.6257H222.025L221.402 34.0122C221.372 34.1748 221.214 34.3067 221.048 34.3067H210.417C210.252 34.3067 210.142 34.1748 210.172 34.0122L210.795 30.6257ZM210.382 12.5153C210.412 12.3527 210.571 12.2208 210.736 12.2208H214.18L212.88 19.2883C212.85 19.4509 212.96 19.5828 213.125 19.5828H223.756C223.922 19.5828 224.08 19.4509 224.11 19.2883L225.41 12.2208H228.854C229.019 12.2208 229.129 12.3527 229.099 12.5153L227.176 22.9693C227.146 23.1319 226.988 23.2637 226.823 23.2637H212.448C212.283 23.2637 212.125 23.3956 212.095 23.5582L210.795 30.6257H207.351C207.186 30.6257 207.076 30.4938 207.106 30.3312L210.382 12.5153ZM214.803 8.83433C214.833 8.67169 214.991 8.53985 215.156 8.53985H225.787C225.953 8.53985 226.063 8.67169 226.033 8.83433L225.41 12.2208H214.18L214.803 8.83433Z" fill="white"/>
<path d="M248.493 8.83433C248.523 8.67169 248.681 8.53985 248.846 8.53985H255.734C255.9 8.53985 256.009 8.67169 255.979 8.83433L255.411 11.9263C255.381 12.089 255.223 12.2208 255.057 12.2208H247.87L248.493 8.83433ZM244.072 12.5153C244.102 12.3527 244.261 12.2208 244.426 12.2208H247.87L247.247 15.6073C247.217 15.77 247.059 15.9018 246.893 15.9018H243.45L244.072 12.5153ZM237.263 8.83433C237.293 8.6717 237.451 8.53985 237.616 8.53985H240.761C240.926 8.53985 241.036 8.67169 241.006 8.83433L239.76 15.6073C239.73 15.77 239.84 15.9018 240.006 15.9018H243.45L242.827 19.2883C242.797 19.4509 242.638 19.5828 242.473 19.5828H239.329C239.163 19.5828 239.005 19.7146 238.975 19.8772L236.375 34.0122C236.345 34.1748 236.187 34.3067 236.022 34.3067H232.877C232.712 34.3067 232.602 34.1748 232.632 34.0122L237.263 8.83433Z" fill="white"/>
<path d="M15.5187 34.0122C15.4925 34.1545 15.5733 34.2735 15.7048 34.3009L15.764 34.3067H18.9084C19.0738 34.3067 19.2321 34.1748 19.262 34.0122L19.8307 30.9202C19.8607 30.7575 19.7508 30.6257 19.5854 30.6257L19.8021 29.4478C20.629 29.4478 21.1782 30.107 21.0286 30.9202L20.4599 34.0122C20.3103 34.8254 19.5187 35.4846 18.6918 35.4846H15.5474C14.7204 35.4846 14.1713 34.8254 14.3209 34.0122L14.7271 31.8036H13.3795L12.9733 34.0122C12.8237 34.8254 12.0321 35.4846 11.2051 35.4846H4.31738C3.49043 35.4846 2.94129 34.8254 3.09086 34.0122L3.49707 31.8036H1.25108C0.424122 31.8036 -0.12501 31.1444 0.0245549 30.3312L4.65543 5.15336C4.80499 4.34019 5.59661 3.68097 6.42357 3.68097L6.20692 4.85888L6.14562 4.86463C6.00404 4.89204 5.87947 5.011 5.85329 5.15336L1.22242 30.3312C1.19624 30.4736 1.27704 30.5925 1.40854 30.6199L1.46772 30.6257H4.91159L9.65078 4.85888H20.8808L21.5036 1.47239C21.5336 1.30975 21.4237 1.17791 21.2583 1.17791L21.475 0C22.3019 0 22.8511 0.659212 22.7015 1.47239L22.2953 3.68097H24.5413L24.3246 4.85888H20.8808L16.8186 26.9447H13.0753L12.3983 30.6257H4.91159L4.28872 34.0122C4.25881 34.1748 4.36864 34.3067 4.53403 34.3067H11.4218C11.5871 34.3067 11.7455 34.1748 11.7754 34.0122L12.3983 30.6257H16.1416L16.8186 26.9447H20.2625C20.4279 26.9447 20.5862 26.8129 20.6161 26.6502L24.5699 5.15336C24.5999 4.99072 24.49 4.85888 24.3246 4.85888L24.5413 3.68097C25.3682 3.68097 25.9174 4.34018 25.7678 5.15336L21.814 26.6502C21.6644 27.4634 20.8728 28.1226 20.0458 28.1226H17.7998L17.5561 29.4478H19.8021L19.5854 30.6257H16.1416L15.5187 34.0122ZM30.492 34.0122C30.4659 34.1545 30.5467 34.2735 30.6782 34.3009L30.7373 34.3067H41.3684L41.4297 34.3009C41.5713 34.2735 41.6959 34.1545 41.722 34.0122L42.3449 30.6257H45.7888C45.9542 30.6257 46.1125 30.4938 46.1424 30.3312L50.0962 8.83433C50.1261 8.67169 50.0163 8.53985 49.8509 8.53985L50.0676 7.36194C50.8945 7.36194 51.4437 8.02115 51.2941 8.83433L47.3403 30.3312C47.1907 31.1444 46.3991 31.8036 45.5721 31.8036H43.3261L42.9199 34.0122C42.7703 34.8254 41.9787 35.4846 41.1518 35.4846H30.5207C29.6937 35.4846 29.1446 34.8254 29.2942 34.0122L29.7004 31.8036H27.4544C26.6274 31.8036 26.0783 31.1444 26.2279 30.3312L30.1817 8.83433C30.3313 8.02115 31.1229 7.36194 31.9499 7.36194L31.7332 8.53985L31.6719 8.5456C31.5303 8.57301 31.4058 8.69197 31.3796 8.83433L27.4257 30.3312C27.3996 30.4736 27.4804 30.5925 27.6119 30.6199L27.671 30.6257H31.1149L35.1229 8.83433C35.1528 8.67169 35.043 8.53985 34.8776 8.53985L35.0943 7.36194C35.9212 7.36194 36.4703 8.02115 36.3208 8.83433L32.5294 29.4478H41.3637L45.155 8.83433C45.3046 8.02115 46.0962 7.36194 46.9232 7.36194L46.7065 8.53985L46.6452 8.5456C46.5037 8.57301 46.3791 8.69197 46.3529 8.83433L42.3449 30.6257H31.1149L30.492 34.0122ZM56.6954 34.0122C56.6692 34.1545 56.75 34.2735 56.8815 34.3009L56.9407 34.3067H67.5717L67.633 34.3009C67.7746 34.2735 67.8992 34.1545 67.9254 34.0122L68.5482 30.6257H71.9921C72.1575 30.6257 72.3158 30.4938 72.3457 30.3312L72.9144 27.2392C72.9443 27.0765 72.8345 26.9447 72.6691 26.9447L72.8858 25.7668C73.7127 25.7668 74.2618 26.426 74.1123 27.2392L73.5436 30.3312C73.394 31.1444 72.6024 31.8036 71.7754 31.8036H69.5294L69.1232 34.0122C68.9737 34.8254 68.182 35.4846 67.3551 35.4846H56.724C55.8971 35.4846 55.3479 34.8254 55.4975 34.0122L55.9037 31.8036H53.6577C52.8308 31.8036 52.2816 31.1444 52.4312 30.3312L55.708 12.5153C55.8576 11.7021 56.6492 11.0429 57.4762 11.0429L57.2595 12.2208L57.1982 12.2266C57.0566 12.254 56.9321 12.3729 56.9059 12.5153L53.6291 30.3312C53.6029 30.4736 53.6837 30.5925 53.8152 30.6199L53.8744 30.6257H57.3182L58.6181 23.5582C58.6443 23.4159 58.7689 23.2969 58.9104 23.2695L58.9717 23.2637H73.3461C73.5115 23.2637 73.6699 23.1319 73.6998 22.9693L75.6225 12.5153C75.6524 12.3527 75.5426 12.2208 75.3772 12.2208L75.5939 11.0429C76.4208 11.0429 76.97 11.7021 76.8204 12.5153L74.8976 22.9693C74.7481 23.7824 73.9564 24.4416 73.1295 24.4416H59.6535L58.7327 29.4478H67.567L67.9732 27.2392C68.1228 26.426 68.9144 25.7668 69.7414 25.7668L69.5247 26.9447L69.4634 26.9505C69.3218 26.9779 69.1973 27.0968 69.1711 27.2392L68.5482 30.6257H57.3182L56.6954 34.0122ZM127.819 34.0122C127.792 34.1545 127.873 34.2735 128.005 34.3009L128.064 34.3067H131.208C131.374 34.3067 131.532 34.1748 131.562 34.0122L134.162 19.8772C134.188 19.7349 134.313 19.6159 134.454 19.5885L134.515 19.5828H137.66C137.825 19.5828 137.984 19.4509 138.013 19.2883L138.636 15.9018H142.08C142.246 15.9018 142.404 15.77 142.434 15.6073L143.057 12.2208H150.244C150.409 12.2208 150.568 12.089 150.597 11.9263L151.166 8.83433C151.192 8.69197 151.112 8.57301 150.98 8.5456L150.921 8.53985L151.138 7.36194C151.964 7.36194 152.514 8.02115 152.364 8.83433L151.795 11.9263C151.646 12.7395 150.854 13.3987 150.027 13.3987H144.038L143.632 15.6073C143.482 16.4205 142.69 17.0797 141.864 17.0797H139.618L139.211 19.2883C139.062 20.1015 138.27 20.7607 137.443 20.7607H135.197L132.76 34.0122C132.61 34.8254 131.819 35.4846 130.992 35.4846H127.847C127.02 35.4846 126.471 34.8254 126.621 34.0122L131.252 8.83433C131.401 8.02116 132.193 7.36194 133.02 7.36194L132.803 8.53985L132.742 8.5456C132.6 8.57301 132.476 8.69197 132.45 8.83433L127.819 34.0122ZM210.172 34.0122C210.146 34.1545 210.227 34.2735 210.358 34.3009L210.417 34.3067H221.048L221.11 34.3009C221.251 34.2735 221.376 34.1545 221.402 34.0122L222.025 30.6257H225.469C225.634 30.6257 225.792 30.4938 225.822 30.3312L226.391 27.2392C226.421 27.0765 226.311 26.9447 226.146 26.9447L226.362 25.7668C227.189 25.7668 227.738 26.426 227.589 27.2392L227.02 30.3312C226.871 31.1444 226.079 31.8036 225.252 31.8036H223.006L222.6 34.0122C222.45 34.8254 221.659 35.4846 220.832 35.4846H210.201C209.374 35.4846 208.825 34.8254 208.974 34.0122L209.38 31.8036H207.134C206.307 31.8036 205.758 31.1444 205.908 30.3312L209.185 12.5153C209.334 11.7021 210.126 11.0429 210.953 11.0429L210.736 12.2208L210.675 12.2266C210.533 12.254 210.409 12.3729 210.382 12.5153L207.106 30.3312C207.079 30.4736 207.16 30.5925 207.292 30.6199L207.351 30.6257H210.795L212.095 23.5582C212.121 23.4159 212.245 23.2969 212.387 23.2695L212.448 23.2637H226.823C226.988 23.2637 227.146 23.1319 227.176 22.9693L229.099 12.5153C229.129 12.3527 229.019 12.2208 228.854 12.2208L229.07 11.0429C229.897 11.0429 230.447 11.7021 230.297 12.5153L228.374 22.9693C228.225 23.7824 227.433 24.4416 226.606 24.4416H213.13L212.209 29.4478H221.044L221.45 27.2392C221.599 26.426 222.391 25.7668 223.218 25.7668L223.001 26.9447L222.94 26.9505C222.798 26.9779 222.674 27.0968 222.648 27.2392L222.025 30.6257H210.795L210.172 34.0122ZM232.632 34.0122C232.606 34.1545 232.687 34.2735 232.818 34.3009L232.877 34.3067H236.022C236.187 34.3067 236.345 34.1748 236.375 34.0122L238.975 19.8772C239.001 19.7349 239.126 19.6159 239.267 19.5885L239.329 19.5828H242.473C242.638 19.5828 242.797 19.4509 242.827 19.2883L243.45 15.9018H246.893C247.059 15.9018 247.217 15.77 247.247 15.6073L247.87 12.2208H255.057C255.223 12.2208 255.381 12.089 255.411 11.9263L255.979 8.83433C256.006 8.69197 255.925 8.57301 255.793 8.5456L255.734 8.53985L255.951 7.36194C256.778 7.36194 257.327 8.02115 257.177 8.83433L256.609 11.9263C256.459 12.7395 255.667 13.3987 254.84 13.3987H248.851L248.445 15.6073C248.295 16.4205 247.504 17.0797 246.677 17.0797H244.431L244.025 19.2883C243.875 20.1015 243.083 20.7607 242.256 20.7607H240.01L237.573 34.0122C237.424 34.8254 236.632 35.4846 235.805 35.4846H232.661C231.834 35.4846 231.285 34.8254 231.434 34.0122L236.065 8.83433C236.214 8.02116 237.006 7.36194 237.833 7.36194L237.616 8.53985L237.555 8.5456C237.414 8.57301 237.289 8.69197 237.263 8.83433L232.632 34.0122ZM186.006 29.4478H194.84L197.792 13.3987H188.958L186.006 29.4478ZM159.803 29.4478H168.637L169.558 24.4416H160.723L159.803 29.4478ZM6.3261 29.4478H11.417L11.6608 28.1226H9.41477C8.58781 28.1226 8.03868 27.4634 8.18825 26.6502L8.75695 23.5582C8.90651 22.745 9.69814 22.0858 10.5251 22.0858L10.3084 23.2637L10.2471 23.2695C10.1056 23.2969 9.981 23.4159 9.95481 23.5582L9.38611 26.6502C9.35993 26.7926 9.44073 26.9116 9.57223 26.939L9.63141 26.9447H13.0753L13.6981 23.5582C13.7281 23.3956 13.6182 23.2637 13.4528 23.2637L13.6695 22.0858C14.4964 22.0858 15.0456 22.745 14.896 23.5582L14.4898 25.7668H15.8374L19.4663 6.03679H10.632L6.3261 29.4478ZM226.362 25.7668L226.146 26.9447H223.001L223.218 25.7668H226.362ZM84.1158 25.7668L83.8991 26.9447H80.7547L80.9714 25.7668H84.1158ZM72.8858 25.7668L72.6691 26.9447H69.5247L69.7414 25.7668H72.8858ZM13.6695 22.0858L13.4528 23.2637H10.3084L10.5251 22.0858H13.6695ZM59.6488 19.5828C59.504 19.5828 59.4016 19.4818 59.3984 19.3475L59.4035 19.2883L60.7034 12.2208H71.9334L72.5562 8.83433C72.5861 8.67169 72.4763 8.53985 72.3109 8.53985L72.5276 7.36194C73.3545 7.36194 73.9037 8.02115 73.7541 8.83433L73.3479 11.0429H75.5939L75.3772 12.2208H71.9334L70.6335 19.2883C70.6036 19.4509 70.4452 19.5828 70.2798 19.5828H59.6488ZM213.125 19.5828C212.981 19.5828 212.878 19.4818 212.875 19.3475L212.88 19.2883L214.18 12.2208H225.41L226.033 8.83433C226.063 8.67169 225.953 8.53985 225.787 8.53985L226.004 7.36194C226.831 7.36194 227.38 8.02115 227.231 8.83433L226.824 11.0429H229.07L228.854 12.2208H225.41L224.11 19.2883C224.08 19.4509 223.922 19.5828 223.756 19.5828H213.125ZM214.24 18.4049H223.075L223.995 13.3987H215.161L214.24 18.4049ZM60.7638 18.4049H69.5981L70.5188 13.3987H61.6846L60.7638 18.4049ZM97.5138 15.6073C97.4876 15.7497 97.5684 15.8686 97.6999 15.896L97.7591 15.9018H100.904C101.069 15.9018 101.227 15.77 101.257 15.6073L101.826 12.5153C101.856 12.3527 101.746 12.2208 101.581 12.2208L101.797 11.0429C102.624 11.0429 103.173 11.7021 103.024 12.5153L102.455 15.6073C102.305 16.4205 101.514 17.0797 100.687 17.0797H97.5425C96.7155 17.0797 96.1664 16.4205 96.3159 15.6073L96.7222 13.3987H87.8879L86.9671 18.4049H96.6998L96.4832 19.5828H85.5526L84.9298 22.9693C84.9036 23.1116 84.9844 23.2306 85.1159 23.258L85.1751 23.2637H96.1056L96.7285 19.8772C96.7584 19.7146 96.6485 19.5828 96.4832 19.5828L96.6998 18.4049C97.5268 18.4049 98.0759 19.0641 97.9263 19.8772L97.5201 22.0858H99.7661L99.5495 23.2637H96.1056L94.7515 30.6257H83.5215L82.8987 34.0122C82.8725 34.1545 82.9533 34.2735 83.0848 34.3009L83.144 34.3067H93.775L93.8363 34.3009C93.9779 34.2735 94.1025 34.1545 94.1287 34.0122L94.7515 30.6257H98.1954C98.3402 30.6257 98.4797 30.5247 98.5323 30.3904L98.549 30.3312L99.7948 23.5582C99.8247 23.3956 99.7149 23.2637 99.5495 23.2637L99.7661 22.0858C100.593 22.0858 101.142 22.745 100.993 23.5582L99.7469 30.3312C99.5973 31.1444 98.8057 31.8036 97.9788 31.8036H95.7327L95.3265 34.0122C95.177 34.8254 94.3853 35.4846 93.5584 35.4846H82.9273C82.1004 35.4846 81.5513 34.8254 81.7008 34.0122L82.107 31.8036H79.861C79.0341 31.8036 78.4849 31.1444 78.6345 30.3312L79.2032 27.2392C79.3528 26.426 80.1444 25.7668 80.9714 25.7668L80.7547 26.9447L80.6934 26.9505C80.5518 26.9779 80.4273 27.0968 80.4011 27.2392L79.8324 30.3312C79.8062 30.4736 79.887 30.5925 80.0185 30.6199L80.0777 30.6257H83.5215L84.1444 27.2392C84.1743 27.0765 84.0645 26.9447 83.8991 26.9447L84.1158 25.7668C84.9427 25.7668 85.4918 26.426 85.3423 27.2392L84.9361 29.4478H93.7703L94.6911 24.4416H84.9584C84.1315 24.4416 83.5823 23.7824 83.7319 22.9693L84.1381 20.7607H81.8921C81.0652 20.7607 80.516 20.1015 80.6656 19.2883L81.9113 12.5153C82.0609 11.7021 82.8525 11.0429 83.6795 11.0429L83.4628 12.2208L83.4015 12.2266C83.2599 12.254 83.1354 12.3729 83.1092 12.5153L81.8635 19.2883C81.8373 19.4306 81.9181 19.5496 82.0496 19.577L82.1088 19.5828H85.5526L86.9067 12.2208H98.1367L98.7595 8.83433C98.7895 8.67169 98.6796 8.53985 98.5142 8.53985L98.7309 7.36194C99.5578 7.36194 100.107 8.02115 99.9574 8.83433L99.5512 11.0429H101.797L101.581 12.2208H98.1367L97.5138 15.6073ZM157.407 15.6073C157.381 15.7497 157.462 15.8686 157.593 15.896L157.652 15.9018H160.797C160.962 15.9018 161.121 15.77 161.15 15.6073L161.773 12.2208H173.003L173.626 8.83433C173.656 8.67169 173.546 8.53985 173.381 8.53985L173.598 7.36194C174.424 7.36194 174.974 8.02115 174.824 8.83433L174.418 11.0429H176.664L176.447 12.2208H173.003L171.703 19.2883C171.673 19.4509 171.515 19.5828 171.35 19.5828H160.719L160.935 18.4049H170.668L171.589 13.3987H162.755L162.348 15.6073C162.199 16.4205 161.407 17.0797 160.58 17.0797H157.436C156.609 17.0797 156.06 16.4205 156.209 15.6073L156.778 12.5153C156.928 11.7021 157.719 11.0429 158.546 11.0429L158.329 12.2208L158.268 12.2266C158.127 12.254 158.002 12.3729 157.976 12.5153L157.407 15.6073ZM239.947 15.896C239.834 15.8725 239.758 15.7817 239.755 15.6666L239.76 15.6073L241.006 8.83433C241.036 8.67169 240.926 8.53985 240.761 8.53985L240.977 7.36194C241.804 7.36194 242.354 8.02115 242.204 8.83433L241.121 14.7239H242.468L242.875 12.5153C243.024 11.7021 243.816 11.0429 244.643 11.0429L244.426 12.2208L244.365 12.2266C244.223 12.254 244.099 12.3729 244.072 12.5153L243.45 15.9018H240.006L239.947 15.896ZM135.133 15.896C135.02 15.8725 134.945 15.7817 134.942 15.6666L134.947 15.6073L136.193 8.83433C136.223 8.67169 136.113 8.53985 135.948 8.53985L136.164 7.36194C136.991 7.36194 137.54 8.02115 137.391 8.83433L136.307 14.7239H137.655L138.061 12.5153C138.211 11.7021 139.002 11.0429 139.829 11.0429L139.613 12.2208L139.551 12.2266C139.41 12.254 139.285 12.3729 139.259 12.5153L138.636 15.9018H135.192L135.133 15.896ZM247.295 8.83433C247.444 8.02115 248.236 7.36194 249.063 7.36194L248.846 8.53985L248.785 8.5456C248.644 8.57301 248.519 8.69197 248.493 8.83433L247.87 12.2208H244.426L244.643 11.0429H246.889L247.295 8.83433ZM213.605 8.83433C213.755 8.02115 214.546 7.36194 215.373 7.36194L215.156 8.53985C214.991 8.53985 214.833 8.67169 214.803 8.83433L214.18 12.2208H210.736L210.953 11.0429H213.199L213.605 8.83433ZM161.198 8.83433C161.348 8.02115 162.139 7.36194 162.966 7.36194L162.75 8.53985C162.584 8.53985 162.426 8.67169 162.396 8.83433L161.773 12.2208H158.329L158.546 11.0429H160.792L161.198 8.83433ZM142.482 8.83433C142.631 8.02115 143.423 7.36194 144.25 7.36194L144.033 8.53985L143.972 8.5456C143.83 8.57301 143.706 8.69197 143.68 8.83433L143.057 12.2208H139.613L139.829 11.0429H142.075L142.482 8.83433ZM86.3317 8.83433C86.4812 8.02115 87.2729 7.36194 88.0998 7.36194L87.8832 8.53985C87.7178 8.53985 87.5595 8.67169 87.5295 8.83433L86.9067 12.2208H83.4628L83.6795 11.0429H85.9255L86.3317 8.83433ZM60.1284 8.83433C60.2779 8.02115 61.0696 7.36194 61.8965 7.36194L61.6799 8.53985C61.5145 8.53985 61.3561 8.67169 61.3262 8.83433L60.7034 12.2208H57.2595L57.4762 11.0429H59.7221L60.1284 8.83433ZM255.951 7.36194L255.734 8.53985H248.846L249.063 7.36194H255.951ZM240.977 7.36194L240.761 8.53985H237.616L237.833 7.36194H240.977ZM226.004 7.36194L225.787 8.53985H215.156L215.373 7.36194H226.004ZM188.953 8.53985L189.17 7.36194H198.902L199.986 1.47239C200.135 0.659212 200.927 0 201.754 0L201.537 1.17791L201.476 1.18366C201.334 1.21106 201.21 1.33003 201.184 1.47239L199.938 8.24537C199.908 8.40801 199.75 8.53985 199.584 8.53985H188.953ZM173.598 7.36194L173.381 8.53985H162.75L162.966 7.36194H173.598ZM151.138 7.36194L150.921 8.53985H144.033L144.25 7.36194H151.138ZM136.164 7.36194L135.948 8.53985H132.803L133.02 7.36194H136.164ZM117.771 8.5341C117.639 8.5067 117.558 8.38773 117.585 8.24537L118.153 5.15336C118.183 4.99072 118.073 4.85888 117.908 4.85888L118.125 3.68097C118.952 3.68097 119.501 4.34018 119.351 5.15336L118.945 7.36194H124.934L124.718 8.53985H117.83L117.771 8.5341ZM110.343 8.53985L110.56 7.36194H112.806L113.212 5.15336C113.362 4.34018 114.153 3.68097 114.98 3.68097L114.764 4.85888L114.702 4.86463C114.561 4.89204 114.436 5.011 114.41 5.15336L113.841 8.24537C113.811 8.40801 113.653 8.53985 113.488 8.53985H110.343ZM98.7309 7.36194L98.5142 8.53985H87.8832L88.0998 7.36194H98.7309ZM72.5276 7.36194L72.3109 8.53985H61.6799L61.8965 7.36194H72.5276ZM50.0676 7.36194L49.8509 8.53985H46.7065L46.9232 7.36194H50.0676ZM35.0943 7.36194L34.8776 8.53985H31.7332L31.9499 7.36194H35.0943ZM118.125 3.68097L117.908 4.85888H114.764L114.98 3.68097H118.125ZM9.07579 1.47239C9.22535 0.65921 10.017 3.85366e-09 10.8439 0L10.6273 1.17791C10.4619 1.17791 10.3036 1.30975 10.2737 1.47239L9.65078 4.85888H6.20692L6.42357 3.68097H8.66957L9.07579 1.47239ZM204.898 0L204.682 1.17791H201.537L201.754 0H204.898ZM21.475 0L21.2583 1.17791H10.6273L10.8439 0H21.475ZM169.672 30.3312C169.642 30.4938 169.484 30.6257 169.319 30.6257H158.388L157.765 34.0122C157.739 34.1545 157.82 34.2735 157.951 34.3009L158.011 34.3067H172.385C172.55 34.3067 172.709 34.1748 172.739 34.0122L176.692 12.5153C176.722 12.3527 176.613 12.2208 176.447 12.2208L176.664 11.0429C177.491 11.0429 178.04 11.7021 177.89 12.5153L173.936 34.0122C173.787 34.8254 172.995 35.4846 172.168 35.4846H157.794C156.967 35.4846 156.418 34.8254 156.567 34.0122L156.974 31.8036H154.728C153.901 31.8036 153.352 31.1444 153.501 30.3312L154.747 23.5582C154.896 22.745 155.688 22.0858 156.515 22.0858L156.298 23.2637L156.237 23.2695C156.095 23.2969 155.971 23.4159 155.945 23.5582L154.699 30.3312C154.673 30.4736 154.754 30.5925 154.885 30.6199L154.944 30.6257H158.388L159.742 23.2637H156.298L156.515 22.0858H158.761L159.167 19.8772C159.317 19.0641 160.108 18.4049 160.935 18.4049L160.719 19.5828C160.553 19.5828 160.395 19.7146 160.365 19.8772L159.742 23.2637H170.673C170.838 23.2637 170.948 23.3956 170.918 23.5582L169.672 30.3312ZM109.779 30.3312C109.753 30.4736 109.834 30.5925 109.965 30.6199L110.024 30.6257H113.468L116.799 12.5153C116.829 12.3527 116.987 12.2208 117.153 12.2208H124.041C124.206 12.2208 124.364 12.089 124.394 11.9263L124.963 8.83433C124.989 8.69197 124.908 8.57301 124.777 8.5456L124.718 8.53985L124.934 7.36194C125.761 7.36194 126.31 8.02115 126.161 8.83433L125.592 11.9263C125.442 12.7395 124.651 13.3987 123.824 13.3987H117.835L114.883 29.4478H120.872L120.655 30.6257H113.468L112.845 34.0122C112.815 34.1748 112.925 34.3067 113.091 34.3067H119.978C120.144 34.3067 120.302 34.1748 120.332 34.0122L120.901 30.9202C120.927 30.7778 120.846 30.6588 120.715 30.6314L120.655 30.6257L120.872 29.4478C121.699 29.4478 122.248 30.107 122.099 30.9202L121.53 34.0122C121.38 34.8254 120.589 35.4846 119.762 35.4846H112.874C112.047 35.4846 111.498 34.8254 111.647 34.0122L112.054 31.8036H109.808C108.981 31.8036 108.432 31.1444 108.581 30.3312L111.695 13.3987H109.449C108.623 13.3987 108.073 12.7395 108.223 11.9263L108.792 8.83433C108.941 8.02115 109.733 7.36194 110.56 7.36194L110.343 8.53985L110.282 8.5456C110.14 8.57301 110.016 8.69197 109.99 8.83433L109.421 11.9263C109.395 12.0687 109.475 12.1877 109.607 12.2151L109.666 12.2208H112.811C112.976 12.2208 113.086 12.3527 113.056 12.5153L109.779 30.3312ZM195.876 30.3312L195.859 30.3904C195.806 30.5247 195.667 30.6257 195.522 30.6257H184.591L183.969 34.0122C183.942 34.1545 184.023 34.2735 184.155 34.3009L184.214 34.3067H198.588C198.733 34.3067 198.873 34.2057 198.925 34.0714L198.942 34.0122L204.927 1.47239C204.957 1.30975 204.847 1.17791 204.682 1.17791L204.898 0C205.725 0 206.274 0.659211 206.125 1.47239L200.14 34.0122C199.99 34.8253 199.199 35.4846 198.372 35.4846H183.997C183.17 35.4846 182.621 34.8254 182.771 34.0122L183.177 31.8036H180.931C180.104 31.8036 179.555 31.1444 179.704 30.3312L182.981 12.5153C183.131 11.7021 183.922 11.0429 184.749 11.0429L184.533 12.2208L184.471 12.2266C184.33 12.254 184.205 12.3729 184.179 12.5153L180.902 30.3312C180.876 30.4736 180.957 30.5925 181.088 30.6199L181.148 30.6257H184.591L187.977 12.2208H184.533L184.749 11.0429H186.995L187.402 8.83433C187.551 8.02115 188.343 7.36194 189.17 7.36194L188.953 8.53985C188.788 8.53985 188.629 8.67169 188.6 8.83433L187.977 12.2208H198.907C199.073 12.2208 199.182 12.3527 199.152 12.5153L195.876 30.3312Z" fill="white"/>
</mask>
<g mask="url(#mask0_56_305)">
<path d="M-4.40491 -17.8646H261.117V46.2523H-4.40491V-17.8646Z" fill="url(#paint0_linear_56_305)"/>
<path d="M12.4741 33.0373H22.661V39.1554H7.68026V35.8341L4.08489 37.0141L0.489513 34.261V30.5901H12.4741V33.0373Z" fill="white"/>
<path d="M212.617 32.4255V34.261H216.811V32.4255H224.002V35.4846H219.208V37.32H212.017V36.7082H204.827V33.6492H210.819V32.4255H212.617Z" fill="white"/>
<path d="M37.9413 34.5669H43.0348V37.0141H36.4433V36.0964H25.9568V32.4255H37.9413V34.5669Z" fill="white"/>
<path d="M98.7631 35.4846H90.9731V37.0141H85.5801V36.7082H80.187V34.261H85.5801V34.5669H88.5762V33.0373H98.7631V35.4846Z" fill="white"/>
<path d="M64.6071 34.261H64.3074V34.8728H69.1013V36.7082H64.3074V36.0964H53.2217V34.261H59.8132V32.4255H64.6071V34.261Z" fill="white"/>
<path d="M132.919 35.4846H128.125V36.7082H126.328V34.261H127.526V33.0373H132.919V35.4846Z" fill="white"/>
<path d="M167.674 34.261H168.873V33.0373H175.464V36.0964H165.278V36.7082H159.885V35.4846H154.491V33.0373H159.885V34.261H162.881V32.4255H167.674V34.261Z" fill="white"/>
<path d="M239.582 36.7082H229.395V33.6492H239.582V36.7082Z" fill="white"/>
<path d="M200.632 35.4846H186.251V36.0964H182.056V33.6492H186.251V34.261H191.644V32.4255H200.632V35.4846Z" fill="white"/>
<path d="M123.332 35.4846H111.347V33.0373H123.332V35.4846Z" fill="white"/>
<path d="M49.0271 33.3433H40.0387V31.5078H49.0271V33.3433Z" fill="white"/>
<path d="M189.846 32.4255H188.648V31.2019H189.846V32.4255Z" fill="white"/>
<g opacity="0.7">
<path d="M7.90969 -3.18137H14.2548L10.5054 18.2575H4.16028L7.90969 -3.18137Z" fill="url(#paint1_linear_56_305)"/>
<path d="M14.9106 -3.18137H16.6411L12.7955 18.3541H11.065L14.9106 -3.18137Z" fill="url(#paint2_linear_56_305)"/>
</g>
<g opacity="0.7">
<path d="M18.3425 37.4423H12.9393L16.1321 18.9217H21.5354L18.3425 37.4423Z" fill="url(#paint3_linear_56_305)"/>
<path d="M12.5075 36.3853H11.2571L14.45 17.8646H15.7003L12.5075 36.3853Z" fill="url(#paint4_linear_56_305)"/>
</g>
<g opacity="0.7">
<path d="M28.7108 0H35.056L31.3066 21.4389H24.9614L28.7108 0Z" fill="url(#paint5_linear_56_305)"/>
<path d="M35.7117 0H37.4422L33.5967 21.5355H31.8662L35.7117 0Z" fill="url(#paint6_linear_56_305)"/>
</g>
<g opacity="0.7">
<path d="M43.3042 39.6448H37.9009L41.0938 21.1242H46.4971L43.3042 39.6448Z" fill="url(#paint7_linear_56_305)"/>
<path d="M37.4692 38.5878H36.2188L39.4116 20.0671H40.662L37.4692 38.5878Z" fill="url(#paint8_linear_56_305)"/>
</g>
<g opacity="0.7">
<path d="M57.588 0H63.9332L60.1838 21.4389H53.8386L57.588 0Z" fill="url(#paint9_linear_56_305)"/>
<path d="M64.5889 0H66.3194L62.4739 21.5355H60.7434L64.5889 0Z" fill="url(#paint10_linear_56_305)"/>
</g>
<g opacity="0.7">
<path d="M69.7342 39.6448H64.3309L67.5237 21.1242H72.927L69.7342 39.6448Z" fill="url(#paint11_linear_56_305)"/>
<path d="M63.8991 38.5878H62.6487L65.8416 20.0671H67.0919L63.8991 38.5878Z" fill="url(#paint12_linear_56_305)"/>
</g>
<g opacity="0.7">
<path d="M84.0178 2.93665H90.363L86.6136 24.3755H80.2684L84.0178 2.93665Z" fill="url(#paint13_linear_56_305)"/>
<path d="M91.0187 2.93665H92.7492L88.9037 24.4721H87.1732L91.0187 2.93665Z" fill="url(#paint14_linear_56_305)"/>
</g>
<g opacity="0.7">
<path d="M109.958 -3.18137H116.304L112.554 18.2575H106.209L109.958 -3.18137Z" fill="url(#paint15_linear_56_305)"/>
<path d="M116.959 -3.18137H118.69L114.844 18.3541H113.114L116.959 -3.18137Z" fill="url(#paint16_linear_56_305)"/>
</g>
<g opacity="0.7">
<path d="M136.878 0H143.223L139.474 21.4389H133.128L136.878 0Z" fill="url(#paint17_linear_56_305)"/>
<path d="M143.879 0H145.609L141.764 21.5355H140.033L143.879 0Z" fill="url(#paint18_linear_56_305)"/>
</g>
<g opacity="0.7">
<path d="M96.1638 42.5815H90.7606L93.9534 24.0608H99.3567L96.1638 42.5815Z" fill="url(#paint19_linear_56_305)"/>
<path d="M90.3288 41.5244H89.0784L92.2713 23.0038H93.5216L90.3288 41.5244Z" fill="url(#paint20_linear_56_305)"/>
</g>
<g opacity="0.7">
<path d="M159.881 5.62859H166.227L162.477 27.0675H156.132L159.881 5.62859Z" fill="url(#paint21_linear_56_305)"/>
<path d="M166.882 5.62859H168.613L164.767 27.164H163.037L166.882 5.62859Z" fill="url(#paint22_linear_56_305)"/>
</g>
<g opacity="0.7">
<path d="M172.027 45.2734H166.624L169.817 26.7528H175.22L172.027 45.2734Z" fill="url(#paint23_linear_56_305)"/>
<path d="M166.192 44.2164H164.942L168.135 25.6957H169.385L166.192 44.2164Z" fill="url(#paint24_linear_56_305)"/>
</g>
<g opacity="0.7">
<path d="M186.556 4.40498H192.901L189.152 25.8439H182.807L186.556 4.40498Z" fill="url(#paint25_linear_56_305)"/>
<path d="M193.557 4.40498H195.287L191.442 25.9404H189.711L193.557 4.40498Z" fill="url(#paint26_linear_56_305)"/>
</g>
<g opacity="0.7">
<path d="M198.702 44.0498H193.299L196.492 25.5292H201.895L198.702 44.0498Z" fill="url(#paint27_linear_56_305)"/>
<path d="M192.867 42.9927H191.617L194.809 24.4721H196.06L192.867 42.9927Z" fill="url(#paint28_linear_56_305)"/>
</g>
<g opacity="0.7">
<path d="M212.007 3.4261H218.352L214.603 24.865H208.258L212.007 3.4261Z" fill="url(#paint29_linear_56_305)"/>
<path d="M219.008 3.4261H220.738L216.893 24.9616H215.162L219.008 3.4261Z" fill="url(#paint30_linear_56_305)"/>
</g>
<g opacity="0.7">
<path d="M224.153 43.0709H218.75L221.943 24.5503H227.346L224.153 43.0709Z" fill="url(#paint31_linear_56_305)"/>
<path d="M218.318 42.0139H217.068L220.26 23.4932H221.511L218.318 42.0139Z" fill="url(#paint32_linear_56_305)"/>
</g>
<g opacity="0.7">
<path d="M238.682 2.93665H245.027L241.277 24.3755H234.932L238.682 2.93665Z" fill="url(#paint33_linear_56_305)"/>
<path d="M245.683 2.93665H247.413L243.567 24.4721H241.837L245.683 2.93665Z" fill="url(#paint34_linear_56_305)"/>
</g>
</g>
<defs>
<linearGradient id="paint0_linear_56_305" x1="120.116" y1="11.7969" x2="119.528" y2="32.7704" gradientUnits="userSpaceOnUse">
<stop stop-color="#50E5E2"/>
<stop offset="1" stop-color="#84D0ED"/>
</linearGradient>
<linearGradient id="paint1_linear_56_305" x1="9.50918" y1="-3.18137" x2="9.50918" y2="18.3541" gradientUnits="userSpaceOnUse">
<stop stop-color="white"/>
<stop offset="1" stop-color="white" stop-opacity="0"/>
</linearGradient>
<linearGradient id="paint2_linear_56_305" x1="14.2548" y1="-3.18137" x2="14.2548" y2="18.2575" gradientUnits="userSpaceOnUse">
<stop stop-color="white"/>
<stop offset="1" stop-color="white" stop-opacity="0"/>
</linearGradient>
<linearGradient id="paint3_linear_56_305" x1="7.1042" y1="36.3853" x2="7.1042" y2="17.8646" gradientUnits="userSpaceOnUse">
<stop stop-color="white"/>
<stop offset="1" stop-color="white" stop-opacity="0"/>
</linearGradient>
<linearGradient id="paint4_linear_56_305" x1="7.1042" y1="36.3853" x2="7.1042" y2="17.8646" gradientUnits="userSpaceOnUse">
<stop stop-color="white"/>
<stop offset="1" stop-color="white" stop-opacity="0"/>
</linearGradient>
<linearGradient id="paint5_linear_56_305" x1="30.3103" y1="-3.64662e-09" x2="30.3103" y2="21.5355" gradientUnits="userSpaceOnUse">
<stop stop-color="white"/>
<stop offset="1" stop-color="white" stop-opacity="0"/>
</linearGradient>
<linearGradient id="paint6_linear_56_305" x1="35.056" y1="-6.38049e-08" x2="35.056" y2="21.4389" gradientUnits="userSpaceOnUse">
<stop stop-color="white"/>
<stop offset="1" stop-color="white" stop-opacity="0"/>
</linearGradient>
<linearGradient id="paint7_linear_56_305" x1="32.0659" y1="38.5878" x2="32.0659" y2="20.0671" gradientUnits="userSpaceOnUse">
<stop stop-color="white"/>
<stop offset="1" stop-color="white" stop-opacity="0"/>
</linearGradient>
<linearGradient id="paint8_linear_56_305" x1="32.0659" y1="38.5878" x2="32.0659" y2="20.0671" gradientUnits="userSpaceOnUse">
<stop stop-color="white"/>
<stop offset="1" stop-color="white" stop-opacity="0"/>
</linearGradient>
<linearGradient id="paint9_linear_56_305" x1="59.1875" y1="-3.64662e-09" x2="59.1875" y2="21.5355" gradientUnits="userSpaceOnUse">
<stop stop-color="white"/>
<stop offset="1" stop-color="white" stop-opacity="0"/>
</linearGradient>
<linearGradient id="paint10_linear_56_305" x1="63.9332" y1="-6.38049e-08" x2="63.9332" y2="21.4389" gradientUnits="userSpaceOnUse">
<stop stop-color="white"/>
<stop offset="1" stop-color="white" stop-opacity="0"/>
</linearGradient>
<linearGradient id="paint11_linear_56_305" x1="58.4958" y1="38.5878" x2="58.4958" y2="20.0671" gradientUnits="userSpaceOnUse">
<stop stop-color="white"/>
<stop offset="1" stop-color="white" stop-opacity="0"/>
</linearGradient>
<linearGradient id="paint12_linear_56_305" x1="58.4958" y1="38.5878" x2="58.4958" y2="20.0671" gradientUnits="userSpaceOnUse">
<stop stop-color="white"/>
<stop offset="1" stop-color="white" stop-opacity="0"/>
</linearGradient>
<linearGradient id="paint13_linear_56_305" x1="85.6173" y1="2.93665" x2="85.6173" y2="24.4721" gradientUnits="userSpaceOnUse">
<stop stop-color="white"/>
<stop offset="1" stop-color="white" stop-opacity="0"/>
</linearGradient>
<linearGradient id="paint14_linear_56_305" x1="90.363" y1="2.93665" x2="90.363" y2="24.3755" gradientUnits="userSpaceOnUse">
<stop stop-color="white"/>
<stop offset="1" stop-color="white" stop-opacity="0"/>
</linearGradient>
<linearGradient id="paint15_linear_56_305" x1="111.558" y1="-3.18137" x2="111.558" y2="18.3541" gradientUnits="userSpaceOnUse">
<stop stop-color="white"/>
<stop offset="1" stop-color="white" stop-opacity="0"/>
</linearGradient>
<linearGradient id="paint16_linear_56_305" x1="116.304" y1="-3.18137" x2="116.304" y2="18.2575" gradientUnits="userSpaceOnUse">
<stop stop-color="white"/>
<stop offset="1" stop-color="white" stop-opacity="0"/>
</linearGradient>
<linearGradient id="paint17_linear_56_305" x1="138.477" y1="-3.64662e-09" x2="138.477" y2="21.5355" gradientUnits="userSpaceOnUse">
<stop stop-color="white"/>
<stop offset="1" stop-color="white" stop-opacity="0"/>
</linearGradient>
<linearGradient id="paint18_linear_56_305" x1="143.223" y1="-6.38049e-08" x2="143.223" y2="21.4389" gradientUnits="userSpaceOnUse">
<stop stop-color="white"/>
<stop offset="1" stop-color="white" stop-opacity="0"/>
</linearGradient>
<linearGradient id="paint19_linear_56_305" x1="84.9255" y1="41.5244" x2="84.9255" y2="23.0038" gradientUnits="userSpaceOnUse">
<stop stop-color="white"/>
<stop offset="1" stop-color="white" stop-opacity="0"/>
</linearGradient>
<linearGradient id="paint20_linear_56_305" x1="84.9255" y1="41.5244" x2="84.9255" y2="23.0038" gradientUnits="userSpaceOnUse">
<stop stop-color="white"/>
<stop offset="1" stop-color="white" stop-opacity="0"/>
</linearGradient>
<linearGradient id="paint21_linear_56_305" x1="161.481" y1="5.62859" x2="161.481" y2="27.164" gradientUnits="userSpaceOnUse">
<stop stop-color="white"/>
<stop offset="1" stop-color="white" stop-opacity="0"/>
</linearGradient>
<linearGradient id="paint22_linear_56_305" x1="166.227" y1="5.62859" x2="166.227" y2="27.0675" gradientUnits="userSpaceOnUse">
<stop stop-color="white"/>
<stop offset="1" stop-color="white" stop-opacity="0"/>
</linearGradient>
<linearGradient id="paint23_linear_56_305" x1="160.789" y1="44.2164" x2="160.789" y2="25.6957" gradientUnits="userSpaceOnUse">
<stop stop-color="white"/>
<stop offset="1" stop-color="white" stop-opacity="0"/>
</linearGradient>
<linearGradient id="paint24_linear_56_305" x1="160.789" y1="44.2164" x2="160.789" y2="25.6957" gradientUnits="userSpaceOnUse">
<stop stop-color="white"/>
<stop offset="1" stop-color="white" stop-opacity="0"/>
</linearGradient>
<linearGradient id="paint25_linear_56_305" x1="188.156" y1="4.40498" x2="188.156" y2="25.9404" gradientUnits="userSpaceOnUse">
<stop stop-color="white"/>
<stop offset="1" stop-color="white" stop-opacity="0"/>
</linearGradient>
<linearGradient id="paint26_linear_56_305" x1="192.901" y1="4.40498" x2="192.901" y2="25.8439" gradientUnits="userSpaceOnUse">
<stop stop-color="white"/>
<stop offset="1" stop-color="white" stop-opacity="0"/>
</linearGradient>
<linearGradient id="paint27_linear_56_305" x1="187.464" y1="42.9927" x2="187.464" y2="24.4721" gradientUnits="userSpaceOnUse">
<stop stop-color="white"/>
<stop offset="1" stop-color="white" stop-opacity="0"/>
</linearGradient>
<linearGradient id="paint28_linear_56_305" x1="187.464" y1="42.9927" x2="187.464" y2="24.4721" gradientUnits="userSpaceOnUse">
<stop stop-color="white"/>
<stop offset="1" stop-color="white" stop-opacity="0"/>
</linearGradient>
<linearGradient id="paint29_linear_56_305" x1="213.607" y1="3.4261" x2="213.607" y2="24.9616" gradientUnits="userSpaceOnUse">
<stop stop-color="white"/>
<stop offset="1" stop-color="white" stop-opacity="0"/>
</linearGradient>
<linearGradient id="paint30_linear_56_305" x1="218.352" y1="3.4261" x2="218.352" y2="24.865" gradientUnits="userSpaceOnUse">
<stop stop-color="white"/>
<stop offset="1" stop-color="white" stop-opacity="0"/>
</linearGradient>
<linearGradient id="paint31_linear_56_305" x1="212.915" y1="42.0139" x2="212.915" y2="23.4932" gradientUnits="userSpaceOnUse">
<stop stop-color="white"/>
<stop offset="1" stop-color="white" stop-opacity="0"/>
</linearGradient>
<linearGradient id="paint32_linear_56_305" x1="212.915" y1="42.0139" x2="212.915" y2="23.4932" gradientUnits="userSpaceOnUse">
<stop stop-color="white"/>
<stop offset="1" stop-color="white" stop-opacity="0"/>
</linearGradient>
<linearGradient id="paint33_linear_56_305" x1="240.281" y1="2.93665" x2="240.281" y2="24.4721" gradientUnits="userSpaceOnUse">
<stop stop-color="white"/>
<stop offset="1" stop-color="white" stop-opacity="0"/>
</linearGradient>
<linearGradient id="paint34_linear_56_305" x1="245.027" y1="2.93665" x2="245.027" y2="24.3755" gradientUnits="userSpaceOnUse">
<stop stop-color="white"/>
<stop offset="1" stop-color="white" stop-opacity="0"/>
</linearGradient>
</defs>
</svg>
